<svg width="190" height="44" viewBox="0 0 190 44" fill="none" xmlns="http://www.w3.org/2000/svg">
<path d="M121.5 23.7502C121.5 23.9491 121.421 24.1398 121.28 24.2805C121.14 24.4212 120.949 24.5002 120.75 24.5002H117.214L112.421 34.0852C112.359 34.2099 112.263 34.3148 112.145 34.3881C112.026 34.4614 111.889 34.5002 111.75 34.5002H111.712C111.567 34.493 111.427 34.4437 111.309 34.3583C111.191 34.2728 111.101 34.1549 111.049 34.0189L103.689 14.6964L99.4325 24.0602C99.373 24.1913 99.277 24.3025 99.156 24.3805C99.0349 24.4586 98.894 24.5001 98.75 24.5002H94.75C94.5511 24.5002 94.3603 24.4212 94.2197 24.2805C94.079 24.1398 94 23.9491 94 23.7502C94 23.5513 94.079 23.3605 94.2197 23.2198C94.3603 23.0792 94.5511 23.0002 94.75 23.0002H98.2675L103.068 12.4402C103.129 12.3054 103.228 12.1917 103.354 12.1134C103.48 12.0351 103.626 11.9958 103.774 12.0004C103.921 12.0049 104.065 12.0531 104.185 12.1389C104.306 12.2248 104.398 12.3444 104.451 12.4827L111.843 31.8877L116.079 23.4152C116.141 23.2904 116.237 23.1855 116.355 23.1122C116.474 23.0389 116.611 23.0001 116.75 23.0002H120.75C120.949 23.0002 121.14 23.0792 121.28 23.2198C121.421 23.3605 121.5 23.5513 121.5 23.7502Z" fill="#FBFBFB"/>
<path d="M1.152 6.016V5.8H10.188C12.492 5.8 14.388 6.004 15.876 6.412C17.388 6.796 18.576 7.36 19.44 8.104C20.304 8.824 20.904 9.712 21.24 10.768C21.6 11.8 21.78 12.964 21.78 14.26C21.78 15.412 21.612 16.492 21.276 17.5C20.94 18.484 20.424 19.336 19.728 20.056C19.032 20.776 18.132 21.352 17.028 21.784C15.948 22.192 14.652 22.396 13.14 22.396C11.58 22.396 10.392 22.036 9.576 21.316C8.784 20.596 8.244 19.732 7.956 18.724V27.868C7.956 28.804 8.184 29.524 8.64 30.028C9.096 30.532 9.792 30.784 10.728 30.784V31H1.152V30.784C1.44 30.784 1.74 30.724 2.052 30.604C2.388 30.46 2.688 30.268 2.952 30.028C3.24 29.788 3.468 29.488 3.636 29.128C3.828 28.744 3.924 28.324 3.924 27.868V8.932C3.924 7.876 3.672 7.132 3.168 6.7C2.664 6.244 1.992 6.016 1.152 6.016ZM7.956 6.088V16.168C7.956 17.32 8.1 18.28 8.388 19.048C8.7 19.792 9.096 20.392 9.576 20.848C10.056 21.304 10.596 21.628 11.196 21.82C11.82 21.988 12.456 22.072 13.104 22.072C14.664 22.072 15.804 21.412 16.524 20.092C17.268 18.772 17.64 16.744 17.64 14.008C17.64 12.736 17.508 11.62 17.244 10.66C17.004 9.676 16.584 8.848 15.984 8.176C15.408 7.48 14.64 6.964 13.68 6.628C12.744 6.268 11.58 6.088 10.188 6.088H7.956ZM24.0739 12.964H30.1579V26.608C30.1579 28.024 30.3859 29.068 30.8419 29.74C31.3219 30.388 32.0659 30.712 33.0739 30.712C33.5539 30.712 34.0339 30.604 34.5139 30.388C34.9939 30.172 35.4259 29.848 35.8099 29.416C36.1939 28.96 36.5059 28.396 36.7459 27.724C36.9859 27.052 37.1059 26.272 37.1059 25.384V12.964H41.1379V28.876C41.1379 29.428 41.3419 29.884 41.7499 30.244C42.1579 30.58 42.6379 30.748 43.1899 30.748V30.964H37.1059V27.4C36.8179 28.648 36.2779 29.56 35.4859 30.136C34.6939 30.712 33.7819 31 32.7499 31C28.4059 31 26.1979 29.188 26.1259 25.564V15.052C26.1259 14.524 25.9219 14.08 25.5139 13.72C25.1059 13.36 24.6259 13.18 24.0739 13.18V12.964ZM45.484 31.036V30.82C46.036 30.82 46.516 30.652 46.924 30.316C47.332 29.956 47.536 29.5 47.536 28.948V6.088C47.536 5.536 47.332 5.092 46.924 4.756C46.516 4.396 46.036 4.216 45.484 4.216V4H51.568V28.948C51.568 29.5 51.772 29.956 52.18 30.316C52.588 30.652 53.068 30.82 53.62 30.82V31.036H45.484ZM64.8894 13.18C64.9854 13.204 65.0814 13.24 65.1774 13.288C65.5854 13.432 65.9214 13.564 66.1854 13.684C66.4734 13.804 66.7134 13.852 66.9054 13.828C67.5774 13.828 67.9134 13.504 67.9134 12.856H68.0574V18.292H67.9134C67.9134 17.572 67.7454 16.9 67.4094 16.276C67.0974 15.652 66.6774 15.112 66.1494 14.656C65.6454 14.176 65.0694 13.792 64.4214 13.504C63.7734 13.192 63.1254 13 62.4774 12.928C61.9734 12.904 61.4334 12.94 60.8574 13.036C60.2814 13.108 59.7414 13.252 59.2374 13.468C58.7574 13.684 58.3494 13.996 58.0134 14.404C57.7014 14.812 57.5454 15.328 57.5454 15.952C57.5454 16.72 57.7974 17.332 58.3014 17.788C58.8294 18.244 59.4774 18.64 60.2454 18.976C61.0134 19.288 61.8534 19.588 62.7654 19.876C63.6774 20.164 64.5174 20.536 65.2854 20.992C66.0534 21.424 66.6894 22 67.1934 22.72C67.7214 23.44 67.9854 24.376 67.9854 25.528C67.9854 26.344 67.8294 27.112 67.5174 27.832C67.2054 28.552 66.7734 29.176 66.2214 29.704C65.6934 30.208 65.0454 30.616 64.2774 30.928C63.5334 31.216 62.7294 31.36 61.8654 31.36C61.2414 31.36 60.5454 31.264 59.7774 31.072C59.1294 30.904 58.6014 30.724 58.1934 30.532C57.8094 30.34 57.4854 30.244 57.2214 30.244C56.9094 30.244 56.6334 30.328 56.3934 30.496C56.1774 30.64 56.0694 30.88 56.0694 31.216H55.9254V25.816H56.0694C56.0694 26.56 56.2494 27.256 56.6094 27.904C56.9934 28.552 57.4734 29.116 58.0494 29.596C58.6254 30.076 59.2614 30.46 59.9574 30.748C60.6534 31.012 61.3374 31.144 62.0094 31.144C62.5614 31.144 63.0894 31.06 63.5934 30.892C64.1214 30.724 64.5774 30.484 64.9614 30.172C65.3694 29.836 65.6934 29.44 65.9334 28.984C66.1734 28.528 66.2934 28.012 66.2934 27.436C66.2934 26.644 66.0294 26.008 65.5014 25.528C64.9974 25.048 64.3614 24.628 63.5934 24.268C62.8254 23.884 61.9974 23.512 61.1094 23.152C60.2214 22.792 59.3934 22.372 58.6254 21.892C57.8574 21.388 57.2094 20.764 56.6814 20.02C56.1774 19.252 55.9254 18.292 55.9254 17.14C55.9254 16.348 56.0934 15.676 56.4294 15.124C56.7894 14.572 57.2574 14.128 57.8334 13.792C58.4094 13.432 59.0574 13.168 59.7774 13C60.4974 12.832 61.2294 12.748 61.9734 12.748C62.5014 12.748 63.0054 12.796 63.4854 12.892C63.9894 12.964 64.4574 13.06 64.8894 13.18ZM79.8427 12.964C80.8267 12.964 81.7627 13.144 82.6507 13.504C83.5387 13.84 84.3187 14.38 84.9907 15.124C85.6627 15.844 86.1907 16.78 86.5747 17.932C86.9827 19.06 87.1867 20.416 87.1867 22H74.4787C74.4787 22.888 74.5867 23.848 74.8027 24.88C75.0187 25.888 75.3547 26.824 75.8107 27.688C76.2907 28.552 76.9027 29.272 77.6467 29.848C78.4147 30.4 79.3387 30.676 80.4187 30.676C82.0027 30.676 83.2747 30.244 84.2347 29.38C85.1947 28.516 85.8787 27.4 86.2867 26.032H86.7547C86.5147 26.776 86.2027 27.46 85.8187 28.084C85.4587 28.708 85.0027 29.248 84.4507 29.704C83.8987 30.136 83.2387 30.472 82.4707 30.712C81.7267 30.952 80.8507 31.072 79.8427 31.072C78.5227 31.072 77.2747 30.82 76.0987 30.316C74.9467 29.812 73.9507 29.152 73.1107 28.336C72.2707 27.496 71.5987 26.548 71.0947 25.492C70.6147 24.412 70.3747 23.296 70.3747 22.144C70.3747 20.824 70.6147 19.6 71.0947 18.472C71.5987 17.344 72.2707 16.372 73.1107 15.556C73.9507 14.716 74.9467 14.068 76.0987 13.612C77.2747 13.156 78.5227 12.94 79.8427 12.964ZM76.3507 21.676C77.8387 21.676 79.0627 21.472 80.0227 21.064C80.9827 20.632 81.7147 20.104 82.2187 19.48C82.7227 18.856 83.0227 18.172 83.1187 17.428C83.2147 16.684 83.1427 16 82.9027 15.376C82.6627 14.752 82.2787 14.236 81.7507 13.828C81.2227 13.396 80.5867 13.18 79.8427 13.18C78.8107 13.18 77.9587 13.48 77.2867 14.08C76.6147 14.656 76.0747 15.376 75.6667 16.24C75.2587 17.104 74.9587 18.028 74.7667 19.012C74.5987 19.996 74.5027 20.884 74.4787 21.676H76.3507ZM125.5 5.8H135.256V5.836C136.504 5.884 137.644 6.016 138.676 6.232C139.708 6.448 140.596 6.784 141.34 7.24C142.084 7.672 142.66 8.236 143.068 8.932C143.476 9.628 143.68 10.492 143.68 11.524C143.68 12.7 143.512 13.66 143.176 14.404C142.84 15.148 142.372 15.736 141.772 16.168C141.172 16.6 140.452 16.9 139.612 17.068C138.772 17.236 137.848 17.344 136.84 17.392C138.16 17.536 139.276 17.764 140.188 18.076C141.1 18.388 141.832 18.82 142.384 19.372C142.96 19.924 143.368 20.596 143.608 21.388C143.872 22.18 144.004 23.128 144.004 24.232C144.004 25.576 144.124 26.68 144.364 27.544C144.604 28.384 144.976 29.056 145.48 29.56C146.008 30.04 146.68 30.376 147.496 30.568C148.312 30.736 149.308 30.82 150.484 30.82V31.036C148.396 31.036 146.668 30.94 145.3 30.748C143.956 30.532 142.876 30.172 142.06 29.668C141.244 29.14 140.668 28.432 140.332 27.544C140.02 26.656 139.864 25.54 139.864 24.196C139.864 22.852 139.72 21.748 139.432 20.884C139.144 19.996 138.712 19.3 138.136 18.796C137.56 18.292 136.828 17.944 135.94 17.752C135.076 17.536 134.056 17.428 132.88 17.428H132.304V31H125.5V30.784C125.788 30.784 126.088 30.724 126.4 30.604C126.736 30.46 127.036 30.268 127.3 30.028C127.588 29.788 127.816 29.488 127.984 29.128C128.176 28.744 128.272 28.324 128.272 27.868V8.932C128.272 8.452 128.176 8.032 127.984 7.672C127.816 7.312 127.588 7.012 127.3 6.772C127.036 6.532 126.736 6.352 126.4 6.232C126.088 6.088 125.788 6.016 125.5 6.016V5.8ZM132.304 17.212H133.672C134.512 17.212 135.292 17.14 136.012 16.996C136.732 16.828 137.356 16.54 137.884 16.132C138.412 15.7 138.82 15.124 139.108 14.404C139.396 13.66 139.54 12.712 139.54 11.56C139.54 10.408 139.396 9.472 139.108 8.752C138.82 8.032 138.412 7.468 137.884 7.06C137.38 6.652 136.768 6.376 136.048 6.232C135.328 6.088 134.548 6.016 133.708 6.016H132.304V17.212ZM149.968 12.964H156.052V26.608C156.052 28.024 156.28 29.068 156.736 29.74C157.216 30.388 157.96 30.712 158.968 30.712C159.448 30.712 159.928 30.604 160.408 30.388C160.888 30.172 161.32 29.848 161.704 29.416C162.088 28.96 162.4 28.396 162.64 27.724C162.88 27.052 163 26.272 163 25.384V12.964H167.032V28.876C167.032 29.428 167.236 29.884 167.644 30.244C168.052 30.58 168.532 30.748 169.084 30.748V30.964H163V27.4C162.712 28.648 162.172 29.56 161.38 30.136C160.588 30.712 159.676 31 158.644 31C154.3 31 152.092 29.188 152.02 25.564V15.052C152.02 14.524 151.816 14.08 151.408 13.72C151 13.36 150.52 13.18 149.968 13.18V12.964ZM171.379 13H177.463C177.055 13.552 176.791 14.176 176.671 14.872C176.551 15.544 176.491 16.216 176.491 16.888C176.755 15.52 177.283 14.524 178.075 13.9C178.891 13.276 179.839 12.964 180.919 12.964C185.263 12.964 187.471 14.776 187.543 18.4V28.912C187.543 29.44 187.747 29.884 188.155 30.244C188.563 30.604 189.043 30.784 189.595 30.784V31H183.511V17.356C183.511 15.94 183.271 14.908 182.791 14.26C182.335 13.588 181.603 13.252 180.595 13.252C180.115 13.252 179.635 13.36 179.155 13.576C178.675 13.792 178.243 14.116 177.859 14.548C177.499 14.98 177.187 15.52 176.923 16.168C176.683 16.816 176.563 17.584 176.563 18.472C176.611 18.856 176.707 19.228 176.851 19.588C176.995 19.924 177.199 20.188 177.463 20.38V31H173.431V15.088C173.431 14.536 173.227 14.092 172.819 13.756C172.411 13.396 171.931 13.216 171.379 13.216V13Z" fill="#FBFBFB"/>
</svg>
