<svg width="21" height="21" viewBox="0 0 21 21" fill="none" xmlns="http://www.w3.org/2000/svg">
<mask id="mask0_722_12086" style="mask-type:alpha" maskUnits="userSpaceOnUse" x="0" y="0" width="21" height="21">
<path fill-rule="evenodd" clip-rule="evenodd" d="M0 0.65332H20.4725V20.1543H0V0.65332Z" fill="white"/>
</mask>
<g mask="url(#mask0_722_12086)">
<path fill-rule="evenodd" clip-rule="evenodd" d="M1.82371 9.77644C3.22571 14.1384 8.76471 17.6654 10.2367 18.5384C11.7137 17.6564 17.2927 14.0904 18.6497 9.78044C19.5407 6.99444 18.7137 3.46544 15.4277 2.40644C13.8357 1.89544 11.9787 2.20644 10.6967 3.19844C10.4287 3.40444 10.0567 3.40844 9.78671 3.20444C8.42871 2.18344 6.65471 1.88444 5.03771 2.40644C1.75671 3.46444 0.932712 6.99344 1.82371 9.77644ZM10.2377 20.1544C10.1137 20.1544 9.99071 20.1244 9.87871 20.0634C9.56571 19.8924 2.19271 15.8284 0.395713 10.2344C0.394712 10.2344 0.394712 10.2334 0.394712 10.2334C-0.733288 6.71144 0.522713 2.28544 4.57771 0.978438C6.48171 0.362438 8.55671 0.633438 10.2347 1.69244C11.8607 0.664438 14.0207 0.380438 15.8867 0.978438C19.9457 2.28744 21.2057 6.71244 20.0787 10.2334C18.3397 15.7634 10.9127 19.8884 10.5977 20.0614C10.4857 20.1234 10.3617 20.1544 10.2377 20.1544Z" fill="#141414"/>
</g>
<path fill-rule="evenodd" clip-rule="evenodd" d="M16.1537 8.27834C15.7667 8.27834 15.4387 7.98134 15.4067 7.58934C15.3407 6.76734 14.7907 6.07334 14.0077 5.82034C13.6127 5.69234 13.3967 5.26934 13.5237 4.87634C13.6527 4.48234 14.0717 4.26834 14.4677 4.39234C15.8307 4.83334 16.7857 6.04034 16.9027 7.46734C16.9357 7.88034 16.6287 8.24234 16.2157 8.27534C16.1947 8.27734 16.1747 8.27834 16.1537 8.27834Z" fill="#141414"/>
</svg>
