<svg width="24" height="24" viewBox="0 0 24 24" fill="" xmlns="http://www.w3.org/2000/svg">
<path d="M19.467 12.25C19.8813 12.25 20.217 11.9142 20.217 11.5C20.217 11.0858 19.8813 10.75 19.467 10.75V12.25ZM11.2786 10.75C10.8644 10.75 10.5286 11.0858 10.5286 11.5C10.5286 11.9142 10.8644 12.25 11.2786 12.25V10.75ZM18.1856 8.16517C17.8971 7.86793 17.4223 7.86081 17.1251 8.14928C16.8278 8.43776 16.8207 8.91258 17.1092 9.20983L18.1856 8.16517ZM19.3475 10.4393L18.8093 10.9617L19.3475 10.4393ZM19.3475 12.5607L19.8857 13.083L19.8857 13.083L19.3475 12.5607ZM17.1092 13.7902C16.8207 14.0874 16.8278 14.5622 17.1251 14.8507C17.4223 15.1392 17.8971 15.1321 18.1856 14.8348L17.1092 13.7902ZM19.9555 11.2103L19.2402 11.4358L19.9555 11.2103ZM19.9555 11.7897L19.2402 11.5642L19.9555 11.7897ZM6.13185 6.1967L6.67007 6.71903L6.13185 6.1967ZM6.13186 16.8033L5.59364 17.3256L6.13186 16.8033ZM14.5341 5.64702C14.89 5.85897 15.3503 5.7423 15.5623 5.38642C15.7742 5.03055 15.6575 4.57023 15.3017 4.35827L14.5341 5.64702ZM15.3017 18.6417C15.6575 18.4298 15.7742 17.9695 15.5623 17.6136C15.3503 17.2577 14.89 17.141 14.5341 17.353L15.3017 18.6417ZM19.467 10.75H11.2786V12.25H19.467V10.75ZM17.1092 9.20983L18.8093 10.9617L19.8857 9.91701L18.1856 8.16517L17.1092 9.20983ZM18.8093 12.0383L17.1092 13.7902L18.1856 14.8348L19.8857 13.083L18.8093 12.0383ZM18.8093 10.9617C18.998 11.1561 19.1079 11.2701 19.1824 11.3607C19.2511 11.444 19.2472 11.4581 19.2402 11.4358L20.6708 10.9847C20.5962 10.7484 20.4685 10.5627 20.3401 10.4069C20.2177 10.2583 20.0573 10.0938 19.8857 9.91701L18.8093 10.9617ZM19.8857 13.083C20.0573 12.9062 20.2177 12.7417 20.3401 12.5931C20.4685 12.4373 20.5962 12.2516 20.6708 12.0152L19.2402 11.5642C19.2472 11.5419 19.2511 11.556 19.1824 11.6393C19.1079 11.7299 18.998 11.8439 18.8093 12.0383L19.8857 13.083ZM19.2402 11.4358C19.2533 11.4773 19.2533 11.5227 19.2402 11.5642L20.6708 12.0152C20.7764 11.6802 20.7764 11.3198 20.6708 10.9847L19.2402 11.4358ZM5.59364 5.67437C2.46879 8.89428 2.46879 14.1057 5.59364 17.3256L6.67007 16.281C4.10998 13.643 4.10998 9.35699 6.67007 6.71903L5.59364 5.67437ZM15.3017 4.35827C12.224 2.52528 8.22055 2.96755 5.59364 5.67437L6.67007 6.71903C8.806 4.51813 12.0447 4.16437 14.5341 5.64702L15.3017 4.35827ZM5.59364 17.3256C8.22056 20.0324 12.224 20.4747 15.3017 18.6417L14.5341 17.353C12.0447 18.8356 8.806 18.4819 6.67007 16.281L5.59364 17.3256Z" fill="" stroke='transparent'/>
</svg>
