<svg width="24" height="24" viewBox="0 0 24 24" fill="none" xmlns="http://www.w3.org/2000/svg">
<path d="M5.44202 16.6852L5.14966 17.3759H5.14966L5.44202 16.6852ZM5.44202 9.31476L5.73437 10.0054L5.44202 9.31476ZM6.18979 9.18265L6.04745 9.91902L6.18979 9.18265ZM6.83018 9.60698L7.45282 9.18886L6.83018 9.60698ZM6.18979 16.8174L6.04745 16.081H6.04745L6.18979 16.8174ZM6.83018 16.393L6.20755 15.9749L6.20754 15.9749L6.83018 16.393ZM18.558 16.6852L18.8503 17.3759L18.558 16.6852ZM18.558 9.31476L18.2656 10.0054L18.558 9.31476ZM17.8102 9.18265L17.9526 9.91902L17.8102 9.18265ZM17.1698 9.60698L16.5472 9.18886L17.1698 9.60698ZM17.8102 16.8174L17.9526 16.081L17.8102 16.8174ZM17.1698 16.393L17.7925 15.9749L17.7925 15.9749L17.1698 16.393ZM19.75 17C19.75 16.5858 19.4142 16.25 19 16.25C18.5858 16.25 18.25 16.5858 18.25 17H19.75ZM12 19.25C11.5858 19.25 11.25 19.5858 11.25 20C11.25 20.4142 11.5858 20.75 12 20.75V19.25ZM5.73437 15.9946C4.56684 15.5004 3.75 14.3447 3.75 13H2.25C2.25 14.9682 3.44694 16.6552 5.14966 17.3759L5.73437 15.9946ZM3.75 13C3.75 11.6553 4.56684 10.4996 5.73437 10.0054L5.14966 8.62409C3.44694 9.34483 2.25 11.0318 2.25 13H3.75ZM7.75 15.4V10.6H6.25V15.4H7.75ZM5.73437 10.0054C5.81293 9.97218 5.86331 9.95099 5.90687 9.93462C5.9477 9.91928 5.96703 9.91422 5.97552 9.91237C5.98115 9.91114 5.98282 9.91108 5.98617 9.91109C5.99135 9.91111 6.00931 9.91164 6.04745 9.91902L6.33213 8.44628C6.09865 8.40115 5.88255 8.39745 5.65633 8.44672C5.46187 8.48907 5.28045 8.56873 5.14966 8.62409L5.73437 10.0054ZM7.75 10.6C7.75 10.1673 7.77395 9.66707 7.45282 9.18886L6.20755 10.0251C6.21857 10.0415 6.22732 10.0538 6.23571 10.1151C6.24844 10.208 6.25 10.3346 6.25 10.6H7.75ZM6.04745 9.91902C6.0216 9.91402 6.02072 9.91028 6.04635 9.92212C6.06851 9.93235 6.09777 9.9484 6.12932 9.96931C6.16087 9.99021 6.18706 10.0109 6.20512 10.0273C6.22601 10.0463 6.22222 10.047 6.20755 10.0251L7.45282 9.18886C7.31634 8.98563 7.1177 8.82481 6.95785 8.71889C6.79801 8.61298 6.57247 8.49274 6.33213 8.44628L6.04745 9.91902ZM5.14966 17.3759C5.28045 17.4313 5.46187 17.5109 5.65633 17.5533C5.88255 17.6025 6.09865 17.5989 6.33213 17.5537L6.04745 16.081C6.0093 16.0884 5.99135 16.0889 5.98617 16.0889C5.98282 16.0889 5.98115 16.0889 5.97552 16.0876C5.96703 16.0858 5.9477 16.0807 5.90687 16.0654C5.86331 16.049 5.81293 16.0278 5.73437 15.9946L5.14966 17.3759ZM6.25 15.4C6.25 15.6654 6.24844 15.792 6.23571 15.8849C6.22732 15.9462 6.21857 15.9585 6.20755 15.9749L7.45282 16.8111C7.77395 16.3329 7.75 15.8327 7.75 15.4H6.25ZM6.33213 17.5537C6.57247 17.5073 6.79801 17.387 6.95785 17.2811C7.1177 17.1752 7.31634 17.0144 7.45282 16.8111L6.20754 15.9749C6.22222 15.953 6.22601 15.9537 6.20512 15.9727C6.18706 15.9891 6.16087 16.0098 6.12932 16.0307C6.09777 16.0516 6.06851 16.0676 6.04635 16.0779C6.02072 16.0897 6.0216 16.086 6.04745 16.081L6.33213 17.5537ZM18.8503 17.3759C20.5531 16.6552 21.75 14.9682 21.75 13H20.25C20.25 14.3447 19.4332 15.5004 18.2656 15.9946L18.8503 17.3759ZM21.75 13C21.75 11.0318 20.5531 9.34483 18.8503 8.62409L18.2656 10.0054C19.4332 10.4996 20.25 11.6553 20.25 13H21.75ZM17.75 15.4V10.6H16.25V15.4H17.75ZM18.8503 8.62409C18.7195 8.56873 18.5381 8.48907 18.3437 8.44672C18.1174 8.39745 17.9013 8.40115 17.6679 8.44628L17.9526 9.91902C17.9907 9.91164 18.0086 9.91111 18.0138 9.91109C18.0172 9.91108 18.0188 9.91114 18.0245 9.91237C18.033 9.91422 18.0523 9.91928 18.0931 9.93462C18.1367 9.95099 18.1871 9.97218 18.2656 10.0054L18.8503 8.62409ZM17.75 10.6C17.75 10.3346 17.7516 10.208 17.7643 10.1151C17.7727 10.0538 17.7814 10.0415 17.7925 10.0251L16.5472 9.18886C16.226 9.66707 16.25 10.1673 16.25 10.6H17.75ZM17.6679 8.44628C17.4275 8.49274 17.202 8.61298 17.0421 8.71889C16.8823 8.82481 16.6837 8.98563 16.5472 9.18886L17.7925 10.0251C17.7778 10.047 17.774 10.0463 17.7949 10.0273C17.8129 10.0109 17.8391 9.99021 17.8707 9.96931C17.9022 9.9484 17.9315 9.93235 17.9537 9.92212C17.9793 9.91028 17.9784 9.91402 17.9526 9.91902L17.6679 8.44628ZM18.2656 15.9946C18.1871 16.0278 18.1367 16.049 18.0931 16.0654C18.0523 16.0807 18.033 16.0858 18.0245 16.0876C18.0188 16.0889 18.0172 16.0889 18.0138 16.0889C18.0086 16.0889 17.9907 16.0884 17.9526 16.081L17.6679 17.5537C17.9013 17.5989 18.1174 17.6025 18.3437 17.5533C18.5381 17.5109 18.7195 17.4313 18.8503 17.3759L18.2656 15.9946ZM16.25 15.4C16.25 15.8327 16.226 16.3329 16.5472 16.8111L17.7925 15.9749C17.7814 15.9585 17.7727 15.9462 17.7643 15.8849C17.7516 15.792 17.75 15.6654 17.75 15.4H16.25ZM17.9526 16.081C17.9784 16.086 17.9793 16.0897 17.9537 16.0779C17.9315 16.0676 17.9022 16.0516 17.8707 16.0307C17.8391 16.0098 17.8129 15.9891 17.7949 15.9727C17.774 15.9537 17.7778 15.953 17.7925 15.9749L16.5472 16.8111C16.6837 17.0144 16.8823 17.1752 17.0421 17.2811C17.202 17.387 17.4275 17.5073 17.6679 17.5537L17.9526 16.081ZM5.75 10C5.75 6.54822 8.54822 3.75 12 3.75V2.25C7.71979 2.25 4.25 5.71979 4.25 10H5.75ZM12 3.75C15.4518 3.75 18.25 6.54822 18.25 10H19.75C19.75 5.71979 16.2802 2.25 12 2.25V3.75ZM18.25 17V18H19.75V17H18.25ZM17 19.25H12V20.75H17V19.25ZM18.25 18C18.25 18.6904 17.6904 19.25 17 19.25V20.75C18.5188 20.75 19.75 19.5188 19.75 18H18.25Z" fill="" stroke='transparent'/>
</svg>
