<svg width="24" height="24" viewBox="0 0 24 24" fill="none" xmlns="http://www.w3.org/2000/svg">
<path d="M5.09202 19.7825L5.43251 19.1143H5.43251L5.09202 19.7825ZM4.21799 18.9085L4.88624 18.568H4.88624L4.21799 18.9085ZM18.908 19.7825L18.5675 19.1143H18.5675L18.908 19.7825ZM19.782 18.9085L19.1138 18.568V18.568L19.782 18.9085ZM18.908 6.2185L18.5675 6.88676H18.5675L18.908 6.2185ZM19.782 7.09253L19.1138 7.43303V7.43303L19.782 7.09253ZM5.09202 6.2185L4.75153 5.55025H4.75153L5.09202 6.2185ZM4.21799 7.09253L3.54973 6.75204H3.54973L4.21799 7.09253ZM15.546 14.8915L15.8865 14.2233L15.546 14.8915ZM15.109 14.4545L15.7772 14.114L15.109 14.4545ZM21.891 14.4545L21.2228 14.114L21.891 14.4545ZM21.454 14.8915L21.1135 14.2233L21.454 14.8915ZM21.454 11.1095L21.1135 11.7778L21.454 11.1095ZM21.891 11.5465L21.2228 11.887L21.891 11.5465ZM15.546 11.1095L15.8865 11.7778L15.546 11.1095ZM15.109 11.5465L15.7772 11.887L15.109 11.5465ZM5.72146 5.30416C5.33687 5.45799 5.14981 5.89447 5.30364 6.27906C5.45748 6.66365 5.89396 6.85071 6.27854 6.69687L5.72146 5.30416ZM14.6286 2.54907L14.3501 1.85271L14.3501 1.85271L14.6286 2.54907ZM15.25 6.00052C15.25 6.41473 15.5858 6.75052 16 6.75052C16.4142 6.75052 16.75 6.41473 16.75 6.00052H15.25ZM7.2 6.75052H16.8V5.25052H7.2V6.75052ZM16.8 19.2505H7.2V20.7505H16.8V19.2505ZM4.75 16.8005V9.20052H3.25V16.8005H4.75ZM19.25 9.20052V11.2505H20.75V9.20052H19.25ZM19.25 15.188V16.8005H20.75V15.188H19.25ZM7.2 19.2505C6.62757 19.2505 6.24336 19.2499 5.94748 19.2258C5.66035 19.2023 5.52307 19.1604 5.43251 19.1143L4.75153 20.4508C5.08879 20.6226 5.44545 20.6897 5.82533 20.7208C6.19646 20.7511 6.65232 20.7505 7.2 20.7505V19.2505ZM3.25 16.8005C3.25 17.3482 3.24942 17.8041 3.27974 18.1752C3.31078 18.5551 3.37789 18.9117 3.54973 19.249L4.88624 18.568C4.8401 18.4774 4.79822 18.3402 4.77476 18.053C4.75058 17.7572 4.75 17.3729 4.75 16.8005H3.25ZM5.43251 19.1143C5.19731 18.9944 5.00608 18.8032 4.88624 18.568L3.54973 19.249C3.81338 19.7664 4.23408 20.1871 4.75153 20.4508L5.43251 19.1143ZM16.8 20.7505C17.3477 20.7505 17.8035 20.7511 18.1747 20.7208C18.5546 20.6897 18.9112 20.6226 19.2485 20.4508L18.5675 19.1143C18.4769 19.1604 18.3396 19.2023 18.0525 19.2258C17.7566 19.2499 17.3724 19.2505 16.8 19.2505V20.7505ZM19.25 16.8005C19.25 17.3729 19.2494 17.7572 19.2252 18.053C19.2018 18.3402 19.1599 18.4774 19.1138 18.568L20.4503 19.249C20.6221 18.9117 20.6892 18.5551 20.7203 18.1752C20.7506 17.8041 20.75 17.3482 20.75 16.8005H19.25ZM19.2485 20.4508C19.7659 20.1871 20.1866 19.7664 20.4503 19.249L19.1138 18.568C18.9939 18.8032 18.8027 18.9944 18.5675 19.1143L19.2485 20.4508ZM16.8 6.75052C17.3724 6.75052 17.7566 6.7511 18.0525 6.77527C18.3396 6.79873 18.4769 6.84061 18.5675 6.88676L19.2485 5.55025C18.9112 5.3784 18.5546 5.31129 18.1747 5.28025C17.8035 5.24993 17.3477 5.25052 16.8 5.25052V6.75052ZM20.75 9.20052C20.75 8.65284 20.7506 8.19698 20.7203 7.82585C20.6892 7.44596 20.6221 7.0893 20.4503 6.75204L19.1138 7.43303C19.1599 7.52359 19.2018 7.66087 19.2252 7.94799C19.2494 8.24387 19.25 8.62809 19.25 9.20052H20.75ZM18.5675 6.88676C18.8027 7.0066 18.9939 7.19782 19.1138 7.43303L20.4503 6.75204C20.1866 6.2346 19.7659 5.8139 19.2485 5.55025L18.5675 6.88676ZM7.2 5.25052C6.65232 5.25052 6.19646 5.24993 5.82533 5.28025C5.44545 5.31129 5.08879 5.3784 4.75153 5.55025L5.43251 6.88676C5.52307 6.84061 5.66035 6.79873 5.94748 6.77527C6.24336 6.7511 6.62757 6.75052 7.2 6.75052V5.25052ZM4.75 9.20052C4.75 8.62809 4.75058 8.24387 4.77476 7.94799C4.79822 7.66087 4.8401 7.52359 4.88624 7.43303L3.54973 6.75204C3.37789 7.0893 3.31078 7.44596 3.27974 7.82585C3.24942 8.19697 3.25 8.65284 3.25 9.20052H4.75ZM4.75153 5.55025C4.23408 5.8139 3.81338 6.2346 3.54973 6.75204L4.88624 7.43303C5.00608 7.19782 5.19731 7.0066 5.43251 6.88676L4.75153 5.55025ZM16.6 11.7505H20.4V10.2505H16.6V11.7505ZM21.25 12.6005V13.4005H22.75V12.6005H21.25ZM20.4 14.2505H16.6V15.7505H20.4V14.2505ZM15.75 13.4005V12.6005H14.25V13.4005H15.75ZM16.6 14.2505C16.3076 14.2505 16.1334 14.2499 16.0043 14.2394C15.8839 14.2295 15.8701 14.2149 15.8865 14.2233L15.2055 15.5598C15.4358 15.6771 15.669 15.717 15.8821 15.7344C16.0865 15.7511 16.3323 15.7505 16.6 15.7505V14.2505ZM14.25 13.4005C14.25 13.6682 14.2494 13.914 14.2661 14.1184C14.2835 14.3315 14.3234 14.5647 14.4407 14.795L15.7772 14.114C15.7856 14.1304 15.771 14.1166 15.7611 13.9962C15.7506 13.8671 15.75 13.6929 15.75 13.4005H14.25ZM15.8865 14.2233C15.8395 14.1993 15.8012 14.1611 15.7772 14.114L14.4407 14.795C14.6085 15.1243 14.8762 15.392 15.2055 15.5598L15.8865 14.2233ZM21.25 13.4005C21.25 13.6929 21.2494 13.8671 21.2389 13.9962C21.229 14.1166 21.2144 14.1304 21.2228 14.114L22.5593 14.795C22.6766 14.5647 22.7165 14.3315 22.7339 14.1184C22.7506 13.914 22.75 13.6682 22.75 13.4005H21.25ZM20.4 15.7505C20.6677 15.7505 20.9135 15.7511 21.1179 15.7344C21.331 15.717 21.5642 15.6771 21.7945 15.5598L21.1135 14.2233C21.1299 14.2149 21.1161 14.2295 20.9957 14.2394C20.8666 14.2499 20.6924 14.2505 20.4 14.2505V15.7505ZM21.2228 14.114C21.1988 14.1611 21.1605 14.1993 21.1135 14.2233L21.7945 15.5598C22.1238 15.392 22.3915 15.1243 22.5593 14.795L21.2228 14.114ZM20.4 11.7505C20.6924 11.7505 20.8666 11.7511 20.9957 11.7616C21.1161 11.7715 21.1299 11.7861 21.1135 11.7778L21.7945 10.4413C21.5642 10.3239 21.331 10.284 21.1179 10.2666C20.9135 10.2499 20.6677 10.2505 20.4 10.2505V11.7505ZM22.75 12.6005C22.75 12.3329 22.7506 12.087 22.7339 11.8826C22.7165 11.6695 22.6766 11.4363 22.5593 11.206L21.2228 11.887C21.2144 11.8706 21.229 11.8844 21.2389 12.0048C21.2494 12.1339 21.25 12.3081 21.25 12.6005H22.75ZM21.1135 11.7778C21.1605 11.8017 21.1988 11.84 21.2228 11.887L22.5593 11.206C22.3915 10.8767 22.1238 10.609 21.7945 10.4413L21.1135 11.7778ZM16.6 10.2505C16.3323 10.2505 16.0865 10.2499 15.8821 10.2666C15.669 10.284 15.4358 10.3239 15.2055 10.4413L15.8865 11.7778C15.8701 11.7861 15.8839 11.7715 16.0043 11.7616C16.1334 11.7511 16.3076 11.7505 16.6 11.7505V10.2505ZM15.75 12.6005C15.75 12.3081 15.7506 12.1339 15.7611 12.0048C15.771 11.8844 15.7856 11.8706 15.7772 11.887L14.4407 11.206C14.3234 11.4363 14.2835 11.6695 14.2661 11.8826C14.2494 12.087 14.25 12.3329 14.25 12.6005H15.75ZM15.2055 10.4413C14.8762 10.609 14.6085 10.8767 14.4407 11.206L15.7772 11.887C15.8012 11.84 15.8395 11.8017 15.8865 11.7778L15.2055 10.4413ZM6.27854 6.69687L14.9072 3.24543L14.3501 1.85271L5.72146 5.30416L6.27854 6.69687ZM15.25 3.47755V6.00052H16.75V3.47755H15.25ZM14.9072 3.24543C15.0714 3.17974 15.25 3.30068 15.25 3.47755H16.75C16.75 2.23949 15.4996 1.39291 14.3501 1.85271L14.9072 3.24543Z" fill="" stroke='transparent'/>
</svg>
