<svg width="24" height="24" viewBox="0 0 24 24" fill="none" xmlns="http://www.w3.org/2000/svg">
<path d="M23.8046 6.30959C23.7358 6.21189 23.6445 6.13215 23.5385 6.07708C23.4324 6.022 23.3147 5.99322 23.1952 5.99314H7.27798L6.07311 1.83814C5.60061 0.202016 4.47784 0.0253906 4.01733 0.0253906H0.80471C0.392937 0.0253906 0.0599365 0.358766 0.0599365 0.770141C0.0599365 1.18152 0.393312 1.51487 0.804687 1.51487H4.01694C4.11856 1.51487 4.42869 1.51487 4.64021 2.24574L8.78509 17.4786C8.87508 17.8 9.16796 18.022 9.50206 18.022H19.6263C19.9406 18.022 20.2211 17.8251 20.3272 17.5292L23.8957 6.98984C23.9778 6.76147 23.9437 6.50722 23.8046 6.30959H23.8046ZM19.1022 16.5329H10.0674L7.6966 7.48302H22.1363L19.1022 16.5329ZM17.6251 19.5314C16.5893 19.5314 15.7501 20.3706 15.7501 21.4064C15.7501 22.4421 16.5893 23.2814 17.6251 23.2814C18.6609 23.2814 19.5001 22.4421 19.5001 21.4064C19.5001 20.3706 18.6609 19.5314 17.6251 19.5314ZM10.8751 19.5314C9.83935 19.5314 9.0001 20.3706 9.0001 21.4064C9.0001 22.4421 9.83935 23.2814 10.8751 23.2814C11.9109 23.2814 12.7501 22.4421 12.7501 21.4064C12.7501 20.3706 11.9109 19.5314 10.8751 19.5314Z" fill="#141414"/>
</svg>
