<svg width="28" height="23" viewBox="0 0 28 23" fill="none" xmlns="http://www.w3.org/2000/svg">
<path d="M27.5 11.7502C27.5 11.9491 27.421 12.1398 27.2803 12.2805C27.1397 12.4212 26.9489 12.5002 26.75 12.5002H23.2138L18.4212 22.0852C18.359 22.2099 18.2632 22.3148 18.1446 22.3881C18.0261 22.4614 17.8894 22.5002 17.75 22.5002H17.7125C17.5671 22.493 17.4269 22.4437 17.309 22.3583C17.1912 22.2728 17.1007 22.1549 17.0487 22.0189L9.68875 2.69642L5.4325 12.0602C5.37298 12.1913 5.27698 12.3025 5.15595 12.3805C5.03492 12.4586 4.894 12.5001 4.75 12.5002H0.75C0.551088 12.5002 0.360322 12.4212 0.21967 12.2805C0.0790175 12.1398 0 11.9491 0 11.7502C0 11.5513 0.0790175 11.3605 0.21967 11.2198C0.360322 11.0792 0.551088 11.0002 0.75 11.0002H4.2675L9.0675 0.44017C9.12865 0.305369 9.22832 0.191677 9.35396 0.113412C9.4796 0.0351474 9.62558 -0.00419053 9.77354 0.000353612C9.92149 0.00489775 10.0648 0.0531206 10.1854 0.138948C10.306 0.224776 10.3985 0.34437 10.4513 0.48267L17.8425 19.8877L22.0788 11.4152C22.141 11.2904 22.2368 11.1855 22.3554 11.1122C22.4739 11.0389 22.6106 11.0001 22.75 11.0002H26.75C26.9489 11.0002 27.1397 11.0792 27.2803 11.2198C27.421 11.3605 27.5 11.5513 27.5 11.7502Z" fill="#FBFBFB"/>
</svg>
