<?xml version="1.0" standalone="no"?>
<!DOCTYPE svg PUBLIC "-//W3C//DTD SVG 20010904//EN"
 "http://www.w3.org/TR/2001/REC-SVG-20010904/DTD/svg10.dtd">
<svg version="1.0" xmlns="http://www.w3.org/2000/svg"
 width="896.000000pt" height="896.000000pt" viewBox="0 0 896.000000 896.000000"
 preserveAspectRatio="xMidYMid meet">
<metadata>
Created by potrace 1.14, written by Peter Selinger 2001-2017
</metadata>
<g transform="translate(0.000000,896.000000) scale(0.100000,-0.100000)"
fill="#000000" stroke="none">
<path d="M3020 8137 c-75 -37 -97 -68 -170 -232 -12 -27 -38 -84 -57 -125 -19
-41 -41 -88 -48 -105 -8 -16 -30 -66 -51 -110 -21 -44 -38 -82 -39 -85 -4 -14
-30 -72 -59 -135 -49 -103 -80 -169 -81 -175 -5 -16 -37 -87 -45 -100 -6 -8
-13 -22 -16 -30 -3 -8 -21 -49 -39 -90 -82 -182 -116 -256 -125 -272 -6 -10
-10 -24 -10 -32 0 -7 -7 -19 -15 -26 -8 -7 -15 -19 -15 -26 0 -8 -21 -58 -46
-112 -25 -53 -54 -115 -64 -137 -59 -128 -90 -197 -90 -200 0 -2 -20 -46 -44
-97 -24 -51 -53 -115 -66 -143 -12 -27 -32 -72 -45 -100 -12 -27 -33 -72 -45
-100 -12 -27 -37 -81 -55 -120 -18 -38 -44 -95 -58 -125 -13 -30 -34 -77 -47
-105 -12 -27 -36 -79 -52 -115 -17 -36 -41 -90 -54 -120 -14 -30 -31 -66 -39
-80 -7 -14 -14 -28 -14 -32 -1 -4 -19 -45 -39 -90 -21 -46 -58 -127 -82 -180
-41 -90 -70 -123 -85 -97 -3 4 -16 4 -30 -1 -15 -6 -27 -6 -30 0 -3 6 -15 6
-29 0 -13 -5 -27 -6 -30 -3 -7 8 -135 8 -142 0 -3 -3 -16 -2 -29 3 -13 5 -25
6 -28 3 -8 -7 -102 -8 -113 0 -6 3 -16 2 -24 -3 -8 -5 -21 -5 -30 0 -9 5 -22
5 -30 0 -8 -5 -21 -5 -30 0 -9 5 -22 5 -29 0 -7 -4 -25 -4 -40 -1 -14 4 -42 4
-62 1 -19 -4 -44 -4 -55 0 -10 4 -31 4 -46 -1 -16 -4 -28 -4 -28 1 0 4 -16 4
-35 0 -19 -4 -37 -4 -40 1 -3 4 -16 4 -29 -1 -12 -4 -29 -4 -36 0 -8 5 -17 7
-21 4 -4 -2 -27 -4 -51 -4 -99 0 -127 -3 -155 -18 -13 -7 -23 -10 -23 -7 0 6
-45 -32 -76 -65 -53 -56 -67 -180 -29 -257 26 -53 85 -102 141 -119 29 -8 56
-14 60 -13 5 1 11 0 14 -1 14 -5 70 -4 70 2 0 4 14 3 30 -2 18 -5 30 -5 30 0
0 6 10 6 25 0 15 -6 27 -6 30 0 3 5 15 6 28 1 12 -5 32 -5 45 0 12 5 22 5 22
-1 0 -5 13 -5 30 0 17 5 30 6 30 2 0 -9 94 -7 109 2 6 4 11 4 11 -1 0 -9 51
-10 66 -1 5 3 18 2 29 -2 11 -4 30 -4 42 1 13 5 23 5 23 1 0 -6 53 -7 70 -2
13 5 82 2 87 -3 3 -4 13 -2 22 3 10 5 23 5 31 0 8 -5 21 -5 31 1 11 6 20 5 24
-1 3 -6 15 -6 30 0 15 6 27 6 30 0 3 -6 15 -6 30 0 15 6 25 6 25 0 0 -5 12 -5
29 0 15 4 34 4 42 0 7 -5 21 -4 30 1 11 6 20 5 24 -1 3 -6 15 -6 30 0 15 6 27
6 30 0 3 -6 15 -6 30 0 14 5 25 6 25 1 0 -5 17 -5 38 -2 20 4 44 6 52 6 20 -1
98 42 124 69 21 21 41 58 94 176 16 36 41 90 55 120 29 65 269 591 303 668 13
28 36 78 50 110 215 470 208 454 206 465 -1 4 2 7 8 7 5 0 10 9 10 20 0 11 5
20 10 20 6 0 9 3 8 8 -1 4 8 27 19 52 12 25 42 92 68 150 26 58 57 129 71 158
38 83 70 153 98 215 14 31 37 81 50 110 13 28 79 174 146 322 67 149 143 313
167 365 l46 94 13 -34 c80 -215 107 -287 108 -296 1 -7 7 -18 13 -25 8 -11 22
-49 27 -79 1 -3 5 -10 9 -16 4 -7 24 -61 46 -120 21 -60 45 -122 52 -139 6
-16 13 -34 15 -40 8 -26 146 -383 155 -400 5 -12 11 -27 13 -35 2 -8 8 -28 15
-45 7 -16 21 -52 31 -80 10 -27 39 -104 65 -170 62 -160 95 -248 99 -260 2 -5
7 -19 11 -30 10 -24 58 -151 114 -300 23 -60 51 -133 63 -162 11 -29 20 -55
19 -57 0 -3 7 -23 16 -43 8 -21 20 -49 26 -63 6 -14 11 -27 12 -30 0 -3 10
-30 22 -60 50 -128 177 -462 209 -550 20 -52 39 -104 44 -115 7 -18 21 -52 25
-65 2 -6 23 -59 32 -80 3 -8 7 -21 9 -28 1 -8 9 -28 17 -45 24 -53 127 -332
127 -345 0 -7 4 -12 9 -12 5 0 11 -13 14 -30 4 -16 16 -50 27 -74 11 -25 20
-52 20 -60 0 -8 4 -17 9 -20 5 -3 12 -18 16 -33 3 -16 26 -77 50 -138 37 -96
71 -186 192 -505 13 -36 28 -74 33 -85 5 -11 32 -83 60 -160 29 -77 58 -153
65 -170 8 -16 30 -73 49 -125 20 -52 41 -108 47 -125 7 -16 13 -34 14 -40 2
-5 19 -50 39 -100 20 -49 38 -97 40 -105 2 -9 16 -45 31 -80 14 -36 28 -72 30
-80 3 -12 44 -119 90 -235 4 -11 9 -24 11 -30 20 -69 118 -304 136 -323 55
-62 112 -90 176 -88 17 1 32 -2 32 -6 0 -17 122 43 156 77 11 11 197 373 413
805 215 431 396 789 402 797 6 7 9 13 6 13 -3 0 13 35 35 78 49 94 118 231
118 234 1 2 135 271 299 598 270 539 300 595 322 596 14 0 29 3 34 6 6 3 19 2
30 -2 11 -4 30 -4 43 1 12 5 22 5 22 1 0 -4 15 -6 32 -5 18 1 33 2 33 3 0 1
21 2 48 3 26 1 47 -1 47 -5 0 -4 14 -3 30 2 17 5 30 6 30 2 0 -8 178 -7 186 1
3 3 19 1 35 -3 17 -5 29 -5 29 0 0 6 10 6 25 0 15 -6 27 -6 30 0 3 5 15 6 28
1 12 -5 32 -5 45 0 12 5 22 5 22 -1 0 -5 13 -5 30 0 16 5 30 6 30 2 0 -9 94
-7 109 2 6 4 11 4 11 -1 0 -9 52 -9 66 0 6 3 15 2 22 -1 21 -13 148 0 183 18
10 6 19 8 19 5 0 -6 34 22 67 55 54 55 75 161 47 243 -16 48 -69 108 -117 133
-18 9 -56 17 -85 19 -29 2 -56 5 -59 8 -3 3 -15 2 -27 -3 -13 -4 -29 -4 -36 0
-8 5 -21 5 -29 1 -9 -4 -27 -5 -41 -1 -14 3 -41 3 -61 0 -19 -4 -44 -4 -55 0
-10 4 -31 4 -46 -1 -16 -4 -28 -4 -28 1 0 4 -16 4 -35 0 -19 -4 -37 -4 -40 1
-3 4 -17 4 -30 -1 -13 -5 -27 -6 -29 -1 -3 4 -25 5 -49 1 -24 -3 -52 -3 -63 0
-10 4 -31 4 -46 -1 -16 -4 -28 -4 -28 1 0 4 -15 4 -34 0 -19 -4 -40 -4 -47 1
-7 4 -20 4 -30 -1 -9 -5 -19 -7 -22 -4 -8 8 -116 9 -123 1 -3 -3 -16 -2 -29 3
-13 5 -25 6 -28 3 -8 -7 -102 -8 -113 0 -6 3 -16 2 -24 -3 -8 -5 -21 -5 -30 0
-9 5 -22 5 -29 0 -8 -4 -26 -4 -42 0 -15 5 -30 6 -33 3 -3 -3 -23 -6 -43 -7
-43 -2 -112 -34 -147 -69 -12 -12 -249 -477 -527 -1032 -278 -556 -512 -1021
-519 -1035 -8 -14 -14 -27 -15 -30 0 -3 -18 -39 -40 -80 -22 -41 -40 -77 -40
-80 -2 -16 -250 -500 -256 -500 -4 0 -10 10 -14 23 -3 12 -10 31 -15 42 -14
30 -80 204 -95 250 -7 22 -22 61 -34 88 -11 26 -18 47 -14 47 3 0 1 6 -5 13
-6 7 -27 57 -48 112 -43 117 -42 114 -134 355 -39 102 -73 192 -75 201 -2 9
-8 25 -13 35 -6 11 -19 44 -30 74 -40 110 -123 325 -132 342 -6 10 -10 24 -10
31 0 7 -9 32 -20 55 -11 22 -20 46 -20 52 0 5 -4 18 -10 28 -5 9 -42 103 -81
207 -40 105 -92 242 -116 305 -24 63 -51 138 -61 165 -9 28 -20 52 -24 53 -4
2 -8 14 -8 26 0 12 -4 26 -9 31 -5 6 -16 30 -24 55 -9 25 -42 115 -75 200 -33
85 -63 164 -67 175 -4 11 -11 30 -16 43 -21 52 -28 71 -57 147 -32 87 -41 111
-43 123 -1 4 -10 25 -22 47 -11 22 -19 41 -19 42 2 3 -7 32 -18 58 -22 52 -45
121 -42 128 1 4 -2 7 -8 7 -6 0 -9 3 -8 8 0 4 -2 16 -7 27 -4 11 -30 79 -57
150 -74 196 -109 288 -118 310 -5 11 -21 52 -35 90 -15 39 -36 95 -48 125 -12
30 -22 57 -22 60 0 3 -14 41 -32 85 -17 44 -57 148 -88 230 -84 220 -124 326
-138 360 -6 17 -12 32 -13 35 -1 8 -14 42 -32 85 -10 21 -17 42 -17 45 -1 5
-48 131 -70 185 -7 17 -22 57 -34 90 -26 69 -34 90 -49 125 -5 14 -24 63 -42
110 -18 47 -43 112 -55 145 -13 33 -53 139 -90 236 -88 234 -130 278 -265 285
-52 2 -75 -2 -110 -19z"/>
</g>
</svg>
