<svg width="26" height="26" viewBox="0 0 26 26" fill="none" xmlns="http://www.w3.org/2000/svg">
<path d="M2.16667 7.58341V7.04175C2.02301 7.04175 1.88523 7.09882 1.78365 7.2004C1.68207 7.30198 1.625 7.43976 1.625 7.58341H2.16667ZM14.0833 7.58341H14.625C14.625 7.43976 14.5679 7.30198 14.4664 7.2004C14.3648 7.09882 14.227 7.04175 14.0833 7.04175V7.58341ZM14.0833 9.75008V9.20841C13.9397 9.20841 13.8019 9.26548 13.7003 9.36706C13.5987 9.46865 13.5417 9.60642 13.5417 9.75008H14.0833ZM2.16667 8.12508H14.0833V7.04175H2.16667V8.12508ZM13.5417 7.58341V20.5834H14.625V7.58341H13.5417ZM2.70833 18.4167V7.58341H1.625V18.4167H2.70833ZM14.0833 10.2917H19.5V9.20841H14.0833V10.2917ZM23.2917 14.0834V18.4167H24.375V14.0834H23.2917ZM14.625 20.5834V9.75008H13.5417V20.5834H14.625ZM20.6483 21.7317C20.3436 22.0361 19.9306 22.207 19.5 22.207C19.0694 22.207 18.6564 22.0361 18.3517 21.7317L17.5847 22.4987C17.8362 22.7503 18.1348 22.9499 18.4634 23.086C18.792 23.2222 19.1443 23.2923 19.5 23.2923C19.8557 23.2923 20.208 23.2222 20.5366 23.086C20.8652 22.9499 21.1638 22.7503 21.4153 22.4987L20.6483 21.7317ZM18.3517 19.4351C18.6564 19.1308 19.0694 18.9598 19.5 18.9598C19.9306 18.9598 20.3436 19.1308 20.6483 19.4351L21.4153 18.6681C21.1638 18.4165 20.8652 18.217 20.5366 18.0808C20.208 17.9447 19.8557 17.8746 19.5 17.8746C19.1443 17.8746 18.792 17.9447 18.4634 18.0808C18.1348 18.217 17.8362 18.4165 17.5847 18.6681L18.3517 19.4351ZM7.64833 21.7317C7.34365 22.0361 6.93063 22.207 6.5 22.207C6.06937 22.207 5.65636 22.0361 5.35167 21.7317L4.58467 22.4987C4.83617 22.7503 5.13476 22.9499 5.4634 23.086C5.79204 23.2222 6.14428 23.2923 6.5 23.2923C6.85572 23.2923 7.20796 23.2222 7.5366 23.086C7.86524 22.9499 8.16383 22.7503 8.41533 22.4987L7.64833 21.7317ZM5.35167 19.4351C5.65636 19.1308 6.06937 18.9598 6.5 18.9598C6.93063 18.9598 7.34365 19.1308 7.64833 19.4351L8.41533 18.6681C8.16383 18.4165 7.86524 18.217 7.5366 18.0808C7.20796 17.9447 6.85572 17.8746 6.5 17.8746C6.14428 17.8746 5.79204 17.9447 5.4634 18.0808C5.13476 18.217 4.83617 18.4165 4.58467 18.6681L5.35167 19.4351ZM20.6483 19.4351C20.9668 19.7514 21.125 20.1663 21.125 20.5834H22.2083C22.2083 19.8912 21.944 19.1967 21.4153 18.6681L20.6483 19.4351ZM21.125 20.5834C21.125 21.0005 20.9668 21.4154 20.6483 21.7317L21.4153 22.4987C21.6671 22.2474 21.8668 21.9488 22.0028 21.6202C22.1389 21.2915 22.2088 20.9392 22.2083 20.5834H21.125ZM17.3333 20.0417H14.0833V21.1251H17.3333V20.0417ZM18.3517 21.7317C18.2004 21.5812 18.0805 21.4023 17.9987 21.2052C17.9169 21.0081 17.8748 20.7968 17.875 20.5834H16.7917C16.7917 21.2757 17.056 21.9701 17.5847 22.4987L18.3517 21.7317ZM17.875 20.5834C17.875 20.1663 18.0332 19.7514 18.3517 19.4351L17.5847 18.6681C17.3329 18.9194 17.1332 19.218 16.9972 19.5467C16.8611 19.8754 16.7912 20.2277 16.7917 20.5834H17.875ZM5.35167 21.7317C5.20044 21.5812 5.08047 21.4023 4.99867 21.2052C4.91686 21.0081 4.87483 20.7968 4.875 20.5834H3.79167C3.79167 21.2757 4.056 21.9701 4.58467 22.4987L5.35167 21.7317ZM4.875 20.5834C4.875 20.1663 5.03317 19.7514 5.35167 19.4351L4.58467 18.6681C4.3329 18.9194 4.13325 19.218 3.99717 19.5467C3.86108 19.8754 3.79125 20.2277 3.79167 20.5834H4.875ZM14.0833 20.0417H8.66667V21.1251H14.0833V20.0417ZM7.64833 19.4351C7.96683 19.7514 8.125 20.1663 8.125 20.5834H9.20833C9.20833 19.8912 8.944 19.1967 8.41533 18.6681L7.64833 19.4351ZM8.125 20.5834C8.125 21.0005 7.96683 21.4154 7.64833 21.7317L8.41533 22.4987C8.6671 22.2474 8.86675 21.9488 9.00284 21.6202C9.13892 21.2915 9.20875 20.9392 9.20833 20.5834H8.125ZM23.2917 18.4167C23.2917 18.8477 23.1205 19.261 22.8157 19.5658C22.511 19.8705 22.0976 20.0417 21.6667 20.0417V21.1251C22.385 21.1251 23.0738 20.8397 23.5817 20.3318C24.0897 19.8239 24.375 19.135 24.375 18.4167H23.2917ZM19.5 10.2917C20.5056 10.2917 21.47 10.6912 22.1811 11.4023C22.8922 12.1134 23.2917 13.0778 23.2917 14.0834H24.375C24.375 12.7905 23.8614 11.5505 22.9471 10.6363C22.0329 9.72203 20.7929 9.20841 19.5 9.20841V10.2917ZM1.625 18.4167C1.625 19.135 1.91034 19.8239 2.41825 20.3318C2.92616 20.8397 3.61504 21.1251 4.33333 21.1251V20.0417C3.90236 20.0417 3.48903 19.8705 3.18428 19.5658C2.87954 19.261 2.70833 18.8477 2.70833 18.4167H1.625Z" fill="#444444"/>
<path d="M8.12435 6.5C8.12435 5.63805 7.78194 4.8114 7.17245 4.2019C6.56295 3.59241 5.7363 3.25 4.87435 3.25C4.58703 3.25 4.31148 3.36414 4.10832 3.5673C3.90515 3.77047 3.79102 4.04602 3.79102 4.33333C3.79102 5.19529 4.13343 6.02194 4.74292 6.63143C5.35241 7.24092 6.17906 7.58333 7.04102 7.58333H8.12435M8.12435 6.5V7.58333M8.12435 6.5C8.12435 5.63805 8.46676 4.8114 9.07625 4.2019C9.68574 3.59241 10.5124 3.25 11.3743 3.25C11.6617 3.25 11.9372 3.36414 12.1404 3.5673C12.3435 3.77047 12.4577 4.04602 12.4577 4.33333C12.4577 5.19529 12.1153 6.02194 11.5058 6.63143C10.8963 7.24092 10.0696 7.58333 9.20768 7.58333H8.12435" stroke="#444444" stroke-linejoin="round"/>
</svg>
