<svg width="26" height="26" viewBox="0 0 26 26" fill="none" xmlns="http://www.w3.org/2000/svg">
<path fill-rule="evenodd" clip-rule="evenodd" d="M11.8799 6.68018L13.2666 5.29351C14.3829 4.17551 16.3433 3.40071 18.2898 3.12164C19.1528 2.98719 20.0305 2.97552 20.8967 3.08698C21.6646 3.20138 22.1343 3.42671 22.3527 3.64684C22.5729 3.86524 22.7982 4.33498 22.9126 5.10284C23.0235 5.84298 23.0149 6.74951 22.8779 7.70978C22.6006 9.65631 21.8241 11.6167 20.7061 12.733L12.9997 20.4411L11.0133 18.4547C10.9328 18.3741 10.8372 18.3102 10.7321 18.2665C10.6269 18.2229 10.5141 18.2004 10.4003 18.2003C10.2864 18.2002 10.1736 18.2226 10.0684 18.2661C9.96313 18.3096 9.8675 18.3734 9.78692 18.4538C9.62418 18.6163 9.53266 18.8368 9.5325 19.0668C9.53242 19.1807 9.55477 19.2935 9.59828 19.3987C9.64178 19.504 9.70559 19.5996 9.78605 19.6802L12.3861 22.2802C12.4666 22.3609 12.5622 22.4249 12.6675 22.4686C12.7728 22.5123 12.8857 22.5348 12.9997 22.5348C13.1136 22.5348 13.2265 22.5123 13.3318 22.4686C13.4371 22.4249 13.5327 22.3609 13.6133 22.2802L14.5614 21.3303L16.5894 24.712C16.657 24.8253 16.7496 24.9216 16.8601 24.9936C16.9705 25.0657 17.096 25.1115 17.2269 25.1278C17.3578 25.144 17.4907 25.1301 17.6154 25.0872C17.7401 25.0443 17.8534 24.9735 17.9466 24.8802L21.4132 21.4135C21.5084 21.3182 21.5801 21.2019 21.6225 21.0741C21.6649 20.9462 21.677 20.8102 21.6576 20.6768L20.8517 15.04L21.9333 13.9602C23.4153 12.4764 24.2871 10.1035 24.5939 7.95418C24.7499 6.86738 24.7673 5.78751 24.6269 4.84458C24.4882 3.92938 24.1831 3.02458 23.5799 2.41964C22.975 1.81644 22.0702 1.50964 21.1533 1.37271C20.1209 1.2368 19.0745 1.24848 18.0454 1.40738C15.8943 1.71071 13.5197 2.58258 12.0394 4.06458L10.9595 5.14618L5.32272 4.34018C5.18938 4.32085 5.05337 4.33288 4.9255 4.3753C4.79762 4.41773 4.68139 4.48938 4.58605 4.58458L1.11938 8.05124C1.02608 8.14446 0.955274 8.25774 0.91237 8.38245C0.869467 8.50717 0.855594 8.64004 0.871809 8.77093C0.888024 8.90182 0.933899 9.02728 1.00594 9.13776C1.07798 9.24824 1.17428 9.34081 1.28752 9.40844L4.66752 11.4364L3.71938 12.3846C3.63867 12.4651 3.57464 12.5607 3.53095 12.666C3.48726 12.7713 3.46477 12.8842 3.46477 12.9982C3.46477 13.1122 3.48726 13.225 3.53095 13.3303C3.57464 13.4356 3.63867 13.5313 3.71938 13.6118L6.31938 16.2118C6.39996 16.2924 6.49562 16.3563 6.60091 16.3999C6.70619 16.4435 6.81903 16.4659 6.93298 16.4659C7.04694 16.4659 7.15978 16.4435 7.26506 16.3999C7.37034 16.3563 7.466 16.2924 7.54658 16.2118C7.62716 16.1312 7.69108 16.0355 7.73469 15.9303C7.7783 15.825 7.80075 15.7121 7.80075 15.5982C7.80075 15.4842 7.7783 15.3714 7.73469 15.2661C7.69108 15.1608 7.62716 15.0652 7.54658 14.9846L5.55845 12.9999L6.67992 11.8802L11.8799 6.68018ZM17.5046 22.8695L15.8232 20.0667L19.3194 16.5723L19.881 20.4931L17.5046 22.8695ZM5.93285 10.1746L9.42725 6.68018L5.50645 6.11858L3.13178 8.49324L5.93285 10.1746ZM4.07818 17.9468C4.15876 17.8664 4.2227 17.7708 4.26636 17.6657C4.31001 17.5605 4.33252 17.4477 4.3326 17.3339C4.33268 17.22 4.31033 17.1072 4.26683 17.002C4.22332 16.8967 4.15952 16.8011 4.07905 16.7205C3.99859 16.6399 3.90304 16.576 3.79786 16.5323C3.69268 16.4887 3.57994 16.4662 3.46606 16.4661C3.35219 16.466 3.23941 16.4884 3.13417 16.5319C3.02894 16.5754 2.9333 16.6392 2.85272 16.7196L1.11938 18.453C0.956877 18.6157 0.865673 18.8363 0.865835 19.0663C0.865998 19.2963 0.957514 19.5168 1.12025 19.6793C1.28299 19.8418 1.50361 19.933 1.7336 19.9329C1.96358 19.9327 2.18408 19.8412 2.34658 19.6784L4.07818 17.9468ZM6.67818 20.5468C6.76096 20.4669 6.82698 20.3713 6.87241 20.2655C6.91783 20.1598 6.94173 20.0461 6.94273 19.931C6.94373 19.8159 6.92181 19.7018 6.87823 19.5953C6.83465 19.4888 6.7703 19.392 6.68893 19.3106C6.60755 19.2293 6.51079 19.1649 6.40428 19.1213C6.29777 19.0778 6.18364 19.0558 6.06857 19.0568C5.95349 19.0578 5.83977 19.0817 5.73403 19.1272C5.6283 19.1726 5.53266 19.2386 5.45272 19.3214L1.98605 22.788C1.82354 22.9508 1.73234 23.1714 1.7325 23.4014C1.73266 23.6314 1.82418 23.8519 1.98692 24.0144C2.14965 24.1769 2.37028 24.2681 2.60026 24.2679C2.83025 24.2678 3.05074 24.1762 3.21325 24.0135L6.67818 20.5468ZM9.27818 23.1468C9.35876 23.0664 9.4227 22.9708 9.46636 22.8657C9.51001 22.7605 9.53252 22.6477 9.5326 22.5339C9.53268 22.42 9.51033 22.3072 9.46683 22.202C9.42332 22.0967 9.35952 22.0011 9.27905 21.9205C9.19859 21.8399 9.10304 21.776 8.99786 21.7323C8.89268 21.6887 8.77994 21.6662 8.66606 21.6661C8.55219 21.666 8.43941 21.6884 8.33417 21.7319C8.22894 21.7754 8.1333 21.8392 8.05272 21.9196L6.31938 23.653C6.15688 23.8157 6.06567 24.0363 6.06584 24.2663C6.066 24.4963 6.15751 24.7168 6.32025 24.8793C6.48299 25.0418 6.70361 25.133 6.9336 25.1329C7.16358 25.1327 7.38408 25.0412 7.54658 24.8784L9.27818 23.1468ZM16.4663 11.6982C16.7506 11.6982 17.0321 11.6422 17.2948 11.5334C17.5575 11.4246 17.7961 11.2651 17.9972 11.0641C18.1982 10.863 18.3577 10.6244 18.4665 10.3617C18.5753 10.0991 18.6313 9.81754 18.6313 9.53324C18.6313 9.24894 18.5753 8.96742 18.4665 8.70476C18.3577 8.4421 18.1982 8.20344 17.9972 8.0024C17.7961 7.80137 17.5575 7.6419 17.2948 7.5331C17.0321 7.42431 16.7506 7.36831 16.4663 7.36831C15.8921 7.36831 15.3415 7.5964 14.9355 8.0024C14.5295 8.40841 14.3014 8.95907 14.3014 9.53324C14.3014 10.1074 14.5295 10.6581 14.9355 11.0641C15.3415 11.4701 15.8921 11.6982 16.4663 11.6982Z" fill="#444444"/>
</svg>
