<svg width="26" height="26" viewBox="0 0 26 26" fill="none" xmlns="http://www.w3.org/2000/svg">
<path d="M7.58398 23.2916C6.29105 23.2916 5.05108 22.778 4.13684 21.8637C3.2226 20.9495 2.70898 19.7095 2.70898 18.4166C2.70898 17.1237 3.2226 15.8837 4.13684 14.9694C5.05108 14.0552 6.29105 13.5416 7.58398 13.5416C8.87691 13.5416 10.1169 14.0552 11.0311 14.9694C11.9454 15.8837 12.459 17.1237 12.459 18.4166C12.459 19.7095 11.9454 20.9495 11.0311 21.8637C10.1169 22.778 8.87691 23.2916 7.58398 23.2916ZM18.4173 12.4583C17.7771 12.4583 17.1432 12.3322 16.5517 12.0872C15.9603 11.8422 15.4229 11.4831 14.9702 11.0304C14.5175 10.5777 14.1584 10.0403 13.9134 9.44883C13.6684 8.85737 13.5423 8.22345 13.5423 7.58325C13.5423 6.94306 13.6684 6.30913 13.9134 5.71767C14.1584 5.12621 14.5175 4.58879 14.9702 4.13611C15.4229 3.68342 15.9603 3.32433 16.5517 3.07934C17.1432 2.83435 17.7771 2.70825 18.4173 2.70825C19.7102 2.70825 20.9502 3.22187 21.8645 4.13611C22.7787 5.05035 23.2923 6.29032 23.2923 7.58325C23.2923 8.87618 22.7787 10.1162 21.8645 11.0304C20.9502 11.9446 19.7102 12.4583 18.4173 12.4583ZM7.58398 21.1249C8.30228 21.1249 8.99115 20.8396 9.49907 20.3317C10.007 19.8238 10.2923 19.1349 10.2923 18.4166C10.2923 17.6983 10.007 17.0094 9.49907 16.5015C8.99115 15.9936 8.30228 15.7083 7.58398 15.7083C6.86569 15.7083 6.17681 15.9936 5.6689 16.5015C5.16099 17.0094 4.87565 17.6983 4.87565 18.4166C4.87565 19.1349 5.16099 19.8238 5.6689 20.3317C6.17681 20.8396 6.86569 21.1249 7.58398 21.1249ZM18.4173 10.2916C19.1356 10.2916 19.8245 10.0062 20.3324 9.49833C20.8403 8.99042 21.1257 8.30155 21.1257 7.58325C21.1257 6.86496 20.8403 6.17608 20.3324 5.66817C19.8245 5.16026 19.1356 4.87492 18.4173 4.87492C17.699 4.87492 17.0101 5.16026 16.5022 5.66817C15.9943 6.17608 15.709 6.86496 15.709 7.58325C15.709 8.30155 15.9943 8.99042 16.5022 9.49833C17.0101 10.0062 17.699 10.2916 18.4173 10.2916ZM3.25065 8.66659C3.25065 7.23 3.82133 5.85225 4.83716 4.83642C5.85298 3.8206 7.23073 3.24992 8.66732 3.24992H11.9173V5.41659H8.66732C7.80536 5.41659 6.97871 5.759 6.36922 6.36849C5.75973 6.97798 5.41732 7.80463 5.41732 8.66659V11.9166H3.25065V8.66659ZM22.7507 14.0833H20.584V17.3333C20.584 18.1952 20.2416 19.0219 19.6321 19.6313C19.0226 20.2408 18.1959 20.5833 17.334 20.5833H14.084V22.7499H17.334C18.7706 22.7499 20.1483 22.1792 21.1641 21.1634C22.18 20.1476 22.7507 18.7698 22.7507 17.3333V14.0833Z" fill="#444444"/>
</svg>
