<svg width="26" height="26" viewBox="0 0 26 26" fill="none" xmlns="http://www.w3.org/2000/svg">
<path d="M12.6403 2.70921C12.747 2.63822 12.8723 2.60034 13.0004 2.60034C13.1285 2.60034 13.2538 2.63822 13.3605 2.70921C15.8147 4.36371 18.6123 5.43982 21.5427 5.85651C21.6975 5.87872 21.8391 5.95601 21.9416 6.07421C22.044 6.19241 22.1004 6.34359 22.1004 6.50001V12.48C21.6849 12.2674 21.2495 12.0963 20.8004 11.9691V7.05511C18.2251 6.61933 15.7553 5.7015 13.5204 4.34981L13.0004 4.02611L12.4804 4.34981C10.2456 5.70196 7.77572 6.62023 5.20039 7.05641V12.35C5.20039 16.5646 7.53779 19.6859 12.3218 21.7698C12.5753 22.3353 12.899 22.8618 13.2838 23.3376L13.2344 23.3571C13.0838 23.4152 12.917 23.4152 12.7664 23.3571C6.90079 21.099 3.90039 17.407 3.90039 12.35V6.50001C3.90041 6.3434 3.95698 6.19206 4.05968 6.07383C4.16239 5.9556 4.30432 5.87843 4.45939 5.85651C7.38929 5.43963 10.1864 4.36353 12.6403 2.70921ZM24.7004 18.85C24.7004 20.4015 24.0841 21.8895 22.987 22.9866C21.8899 24.0837 20.4019 24.7 18.8504 24.7C17.2989 24.7 15.8109 24.0837 14.7138 22.9866C13.6167 21.8895 13.0004 20.4015 13.0004 18.85C13.0004 17.2985 13.6167 15.8105 14.7138 14.7134C15.8109 13.6163 17.2989 13 18.8504 13C20.4019 13 21.8899 13.6163 22.987 14.7134C24.0841 15.8105 24.7004 17.2985 24.7004 18.85ZM21.9106 16.4398C21.8502 16.3793 21.7785 16.3312 21.6995 16.2985C21.6205 16.2657 21.5359 16.2488 21.4504 16.2488C21.3649 16.2488 21.2802 16.2657 21.2013 16.2985C21.1223 16.3312 21.0506 16.3793 20.9902 16.4398L17.5504 19.8809L16.7106 19.0398C16.5885 18.9178 16.423 18.8492 16.2504 18.8492C16.0778 18.8492 15.9122 18.9178 15.7902 19.0398C15.6681 19.1619 15.5996 19.3274 15.5996 19.5C15.5996 19.6726 15.6681 19.8382 15.7902 19.9602L17.0902 21.2602C17.1506 21.3207 17.2223 21.3688 17.3013 21.4015C17.3802 21.4343 17.4649 21.4512 17.5504 21.4512C17.6359 21.4512 17.7205 21.4343 17.7995 21.4015C17.8785 21.3688 17.9502 21.3207 18.0106 21.2602L21.9106 17.3602C21.9711 17.2998 22.0191 17.2281 22.0519 17.1491C22.0847 17.0702 22.1016 16.9855 22.1016 16.9C22.1016 16.8145 22.0847 16.7299 22.0519 16.6509C22.0191 16.5719 21.9711 16.5002 21.9106 16.4398Z" fill="#444444"/>
</svg>
