<svg width="36" height="36" viewBox="0 0 36 36" fill="none" xmlns="http://www.w3.org/2000/svg">
<circle cx="18" cy="18" r="18" fill="#F5F5F5"/>
<mask id="mask0_1973_6856" style="mask-type:alpha" maskUnits="userSpaceOnUse" x="8" y="8" width="21" height="21">
<path fill-rule="evenodd" clip-rule="evenodd" d="M8 8.99988H28.4725V28.5009H8V8.99988Z" fill="white"/>
</mask>
<g mask="url(#mask0_1973_6856)">
<path fill-rule="evenodd" clip-rule="evenodd" d="M9.82371 18.123C11.2257 22.485 16.7647 26.012 18.2367 26.885C19.7137 26.003 25.2927 22.437 26.6497 18.127C27.5407 15.341 26.7137 11.812 23.4277 10.753C21.8357 10.242 19.9787 10.553 18.6967 11.545C18.4287 11.751 18.0567 11.755 17.7867 11.551C16.4287 10.53 14.6547 10.231 13.0377 10.753C9.75671 11.811 8.93271 15.34 9.82371 18.123ZM18.2377 28.501C18.1137 28.501 17.9907 28.471 17.8787 28.41C17.5657 28.239 10.1927 24.175 8.39571 18.581C8.39471 18.581 8.39471 18.58 8.39471 18.58C7.26671 15.058 8.52271 10.632 12.5777 9.325C14.4817 8.709 16.5567 8.98 18.2347 10.039C19.8607 9.011 22.0207 8.727 23.8867 9.325C27.9457 10.634 29.2057 15.059 28.0787 18.58C26.3397 24.11 18.9127 28.235 18.5977 28.408C18.4857 28.47 18.3617 28.501 18.2377 28.501Z" fill="#1D1C1C"/>
</g>
<path fill-rule="evenodd" clip-rule="evenodd" d="M24.1537 16.6249C23.7667 16.6249 23.4387 16.3279 23.4067 15.9359C23.3407 15.1139 22.7907 14.4199 22.0077 14.1669C21.6127 14.0389 21.3967 13.6159 21.5237 13.2229C21.6527 12.8289 22.0717 12.6149 22.4677 12.7389C23.8307 13.1799 24.7857 14.3869 24.9027 15.8139C24.9357 16.2269 24.6287 16.5889 24.2157 16.6219C24.1947 16.6239 24.1747 16.6249 24.1537 16.6249Z" fill="#1D1C1C"/>
</svg>
