<svg width="189" height="31" viewBox="0 0 189 31" fill="none" xmlns="http://www.w3.org/2000/svg">
<path d="M120.348 19.7502C120.348 19.9491 120.269 20.1399 120.128 20.2805C119.988 20.4212 119.797 20.5002 119.598 20.5002H116.062L111.269 30.0852C111.207 30.2099 111.111 30.3148 110.993 30.3881C110.874 30.4614 110.737 30.5002 110.598 30.5002H110.561C110.415 30.493 110.275 30.4437 110.157 30.3583C110.039 30.2728 109.949 30.1549 109.897 30.0189L102.537 10.6964L98.2805 20.0602C98.221 20.1913 98.125 20.3025 98.004 20.3805C97.8829 20.4586 97.742 20.5001 97.598 20.5002H93.598C93.3991 20.5002 93.2083 20.4212 93.0677 20.2805C92.927 20.1399 92.848 19.9491 92.848 19.7502C92.848 19.5513 92.927 19.3605 93.0677 19.2198C93.2083 19.0792 93.3991 19.0002 93.598 19.0002H97.1155L101.915 8.44017C101.977 8.30537 102.076 8.19168 102.202 8.11341C102.328 8.03515 102.474 7.99581 102.622 8.00036C102.769 8.0049 102.913 8.05312 103.033 8.13895C103.154 8.22478 103.246 8.34437 103.299 8.48267L110.69 27.8877L114.927 19.4152C114.989 19.2905 115.085 19.1856 115.203 19.1122C115.322 19.0389 115.459 19.0001 115.598 19.0002H119.598C119.797 19.0002 119.988 19.0792 120.128 19.2198C120.269 19.3605 120.348 19.5513 120.348 19.7502Z" fill="#232323"/>
<path d="M0 2.016V1.8H9.036C11.34 1.8 13.236 2.004 14.724 2.412C16.236 2.796 17.424 3.36 18.288 4.104C19.152 4.824 19.752 5.712 20.088 6.768C20.448 7.8 20.628 8.964 20.628 10.26C20.628 11.412 20.46 12.492 20.124 13.5C19.788 14.484 19.272 15.336 18.576 16.056C17.88 16.776 16.98 17.352 15.876 17.784C14.796 18.192 13.5 18.396 11.988 18.396C10.428 18.396 9.24 18.036 8.424 17.316C7.632 16.596 7.092 15.732 6.804 14.724V23.868C6.804 24.804 7.032 25.524 7.488 26.028C7.944 26.532 8.64 26.784 9.576 26.784V27H0V26.784C0.288 26.784 0.588 26.724 0.9 26.604C1.236 26.46 1.536 26.268 1.8 26.028C2.088 25.788 2.316 25.488 2.484 25.128C2.676 24.744 2.772 24.324 2.772 23.868V4.932C2.772 3.876 2.52 3.132 2.016 2.7C1.512 2.244 0.84 2.016 0 2.016ZM6.804 2.088V12.168C6.804 13.32 6.948 14.28 7.236 15.048C7.548 15.792 7.944 16.392 8.424 16.848C8.904 17.304 9.444 17.628 10.044 17.82C10.668 17.988 11.304 18.072 11.952 18.072C13.512 18.072 14.652 17.412 15.372 16.092C16.116 14.772 16.488 12.744 16.488 10.008C16.488 8.736 16.356 7.62 16.092 6.66C15.852 5.676 15.432 4.848 14.832 4.176C14.256 3.48 13.488 2.964 12.528 2.628C11.592 2.268 10.428 2.088 9.036 2.088H6.804Z" fill="#232323"/>
<path d="M22.9219 8.964H29.0059V22.608C29.0059 24.024 29.2339 25.068 29.6899 25.74C30.1699 26.388 30.9139 26.712 31.9219 26.712C32.4019 26.712 32.8819 26.604 33.3619 26.388C33.8419 26.172 34.2739 25.848 34.6579 25.416C35.0419 24.96 35.3539 24.396 35.5939 23.724C35.8339 23.052 35.9539 22.272 35.9539 21.384V8.964H39.9859V24.876C39.9859 25.428 40.1899 25.884 40.5979 26.244C41.0059 26.58 41.4859 26.748 42.0379 26.748V26.964H35.9539V23.4C35.6659 24.648 35.1259 25.56 34.3339 26.136C33.5419 26.712 32.6299 27 31.5979 27C27.2539 27 25.0459 25.188 24.9739 21.564V11.052C24.9739 10.524 24.7699 10.08 24.3619 9.72C23.9539 9.36 23.4739 9.18 22.9219 9.18V8.964Z" fill="#232323"/>
<path d="M44.332 27.036V26.82C44.884 26.82 45.364 26.652 45.772 26.316C46.18 25.956 46.384 25.5 46.384 24.948V2.088C46.384 1.536 46.18 1.092 45.772 0.756001C45.364 0.396001 44.884 0.216002 44.332 0.216002V0H50.416V24.948C50.416 25.5 50.62 25.956 51.028 26.316C51.436 26.652 51.916 26.82 52.468 26.82V27.036H44.332Z" fill="#232323"/>
<path d="M63.7374 9.18C63.8334 9.204 63.9294 9.24 64.0254 9.288C64.4334 9.432 64.7694 9.564 65.0334 9.684C65.3214 9.804 65.5614 9.852 65.7534 9.828C66.4254 9.828 66.7614 9.504 66.7614 8.856H66.9054V14.292H66.7614C66.7614 13.572 66.5934 12.9 66.2574 12.276C65.9454 11.652 65.5254 11.112 64.9974 10.656C64.4934 10.176 63.9174 9.792 63.2694 9.504C62.6214 9.192 61.9734 9 61.3254 8.928C60.8214 8.904 60.2814 8.94 59.7054 9.036C59.1294 9.108 58.5894 9.252 58.0854 9.468C57.6054 9.684 57.1974 9.996 56.8614 10.404C56.5494 10.812 56.3934 11.328 56.3934 11.952C56.3934 12.72 56.6454 13.332 57.1494 13.788C57.6774 14.244 58.3254 14.64 59.0934 14.976C59.8614 15.288 60.7014 15.588 61.6134 15.876C62.5254 16.164 63.3654 16.536 64.1334 16.992C64.9014 17.424 65.5374 18 66.0414 18.72C66.5694 19.44 66.8334 20.376 66.8334 21.528C66.8334 22.344 66.6774 23.112 66.3654 23.832C66.0534 24.552 65.6214 25.176 65.0694 25.704C64.5414 26.208 63.8934 26.616 63.1254 26.928C62.3814 27.216 61.5774 27.36 60.7134 27.36C60.0894 27.36 59.3934 27.264 58.6254 27.072C57.9774 26.904 57.4494 26.724 57.0414 26.532C56.6574 26.34 56.3334 26.244 56.0694 26.244C55.7574 26.244 55.4814 26.328 55.2414 26.496C55.0254 26.64 54.9174 26.88 54.9174 27.216H54.7734V21.816H54.9174C54.9174 22.56 55.0974 23.256 55.4574 23.904C55.8414 24.552 56.3214 25.116 56.8974 25.596C57.4734 26.076 58.1094 26.46 58.8054 26.748C59.5014 27.012 60.1854 27.144 60.8574 27.144C61.4094 27.144 61.9374 27.06 62.4414 26.892C62.9694 26.724 63.4254 26.484 63.8094 26.172C64.2174 25.836 64.5414 25.44 64.7814 24.984C65.0214 24.528 65.1414 24.012 65.1414 23.436C65.1414 22.644 64.8774 22.008 64.3494 21.528C63.8454 21.048 63.2094 20.628 62.4414 20.268C61.6734 19.884 60.8454 19.512 59.9574 19.152C59.0694 18.792 58.2414 18.372 57.4734 17.892C56.7054 17.388 56.0574 16.764 55.5294 16.02C55.0254 15.252 54.7734 14.292 54.7734 13.14C54.7734 12.348 54.9414 11.676 55.2774 11.124C55.6374 10.572 56.1054 10.128 56.6814 9.792C57.2574 9.432 57.9054 9.168 58.6254 9C59.3454 8.832 60.0774 8.748 60.8214 8.748C61.3494 8.748 61.8534 8.796 62.3334 8.892C62.8374 8.964 63.3054 9.06 63.7374 9.18Z" fill="#232323"/>
<path d="M78.6907 8.964C79.6747 8.964 80.6107 9.144 81.4987 9.504C82.3867 9.84 83.1667 10.38 83.8387 11.124C84.5107 11.844 85.0387 12.78 85.4227 13.932C85.8307 15.06 86.0347 16.416 86.0347 18H73.3267C73.3267 18.888 73.4347 19.848 73.6507 20.88C73.8667 21.888 74.2027 22.824 74.6587 23.688C75.1387 24.552 75.7507 25.272 76.4947 25.848C77.2627 26.4 78.1867 26.676 79.2667 26.676C80.8507 26.676 82.1227 26.244 83.0827 25.38C84.0427 24.516 84.7267 23.4 85.1347 22.032H85.6027C85.3627 22.776 85.0507 23.46 84.6667 24.084C84.3067 24.708 83.8507 25.248 83.2987 25.704C82.7467 26.136 82.0867 26.472 81.3187 26.712C80.5747 26.952 79.6987 27.072 78.6907 27.072C77.3707 27.072 76.1227 26.82 74.9467 26.316C73.7947 25.812 72.7987 25.152 71.9587 24.336C71.1187 23.496 70.4467 22.548 69.9427 21.492C69.4627 20.412 69.2227 19.296 69.2227 18.144C69.2227 16.824 69.4627 15.6 69.9427 14.472C70.4467 13.344 71.1187 12.372 71.9587 11.556C72.7987 10.716 73.7947 10.068 74.9467 9.612C76.1227 9.156 77.3707 8.94 78.6907 8.964ZM75.1987 17.676C76.6867 17.676 77.9107 17.472 78.8707 17.064C79.8307 16.632 80.5627 16.104 81.0667 15.48C81.5707 14.856 81.8707 14.172 81.9667 13.428C82.0627 12.684 81.9907 12 81.7507 11.376C81.5107 10.752 81.1267 10.236 80.5987 9.828C80.0707 9.396 79.4347 9.18 78.6907 9.18C77.6587 9.18 76.8067 9.48 76.1347 10.08C75.4627 10.656 74.9227 11.376 74.5147 12.24C74.1067 13.104 73.8067 14.028 73.6147 15.012C73.4467 15.996 73.3507 16.884 73.3267 17.676H75.1987Z" fill="#232323"/>
<path d="M124.348 1.8H134.104V1.836C135.352 1.884 136.492 2.016 137.524 2.232C138.556 2.448 139.444 2.784 140.188 3.24C140.932 3.672 141.508 4.236 141.916 4.932C142.324 5.628 142.528 6.492 142.528 7.524C142.528 8.7 142.36 9.66 142.024 10.404C141.688 11.148 141.22 11.736 140.62 12.168C140.02 12.6 139.3 12.9 138.46 13.068C137.62 13.236 136.696 13.344 135.688 13.392C137.008 13.536 138.124 13.764 139.036 14.076C139.948 14.388 140.68 14.82 141.232 15.372C141.808 15.924 142.216 16.596 142.456 17.388C142.72 18.18 142.852 19.128 142.852 20.232C142.852 21.576 142.972 22.68 143.212 23.544C143.452 24.384 143.824 25.056 144.328 25.56C144.856 26.04 145.528 26.376 146.344 26.568C147.16 26.736 148.156 26.82 149.332 26.82V27.036C147.244 27.036 145.516 26.94 144.148 26.748C142.804 26.532 141.724 26.172 140.908 25.668C140.092 25.14 139.516 24.432 139.18 23.544C138.868 22.656 138.712 21.54 138.712 20.196C138.712 18.852 138.568 17.748 138.28 16.884C137.992 15.996 137.56 15.3 136.984 14.796C136.408 14.292 135.676 13.944 134.788 13.752C133.924 13.536 132.904 13.428 131.728 13.428H131.152V27H124.348V26.784C124.636 26.784 124.936 26.724 125.248 26.604C125.584 26.46 125.884 26.268 126.148 26.028C126.436 25.788 126.664 25.488 126.832 25.128C127.024 24.744 127.12 24.324 127.12 23.868V4.932C127.12 4.452 127.024 4.032 126.832 3.672C126.664 3.312 126.436 3.012 126.148 2.772C125.884 2.532 125.584 2.352 125.248 2.232C124.936 2.088 124.636 2.016 124.348 2.016V1.8ZM131.152 13.212H132.52C133.36 13.212 134.14 13.14 134.86 12.996C135.58 12.828 136.204 12.54 136.732 12.132C137.26 11.7 137.668 11.124 137.956 10.404C138.244 9.66 138.388 8.712 138.388 7.56C138.388 6.408 138.244 5.472 137.956 4.752C137.668 4.032 137.26 3.468 136.732 3.06C136.228 2.652 135.616 2.376 134.896 2.232C134.176 2.088 133.396 2.016 132.556 2.016H131.152V13.212Z" fill="#232323"/>
<path d="M148.816 8.964H154.9V22.608C154.9 24.024 155.128 25.068 155.584 25.74C156.064 26.388 156.808 26.712 157.816 26.712C158.296 26.712 158.776 26.604 159.256 26.388C159.736 26.172 160.168 25.848 160.552 25.416C160.936 24.96 161.248 24.396 161.488 23.724C161.728 23.052 161.848 22.272 161.848 21.384V8.964H165.88V24.876C165.88 25.428 166.084 25.884 166.492 26.244C166.9 26.58 167.38 26.748 167.932 26.748V26.964H161.848V23.4C161.56 24.648 161.02 25.56 160.228 26.136C159.436 26.712 158.524 27 157.492 27C153.148 27 150.94 25.188 150.868 21.564V11.052C150.868 10.524 150.664 10.08 150.256 9.72C149.848 9.36 149.368 9.18 148.816 9.18V8.964Z" fill="#232323"/>
<path d="M170.227 9H176.311C175.903 9.552 175.639 10.176 175.519 10.872C175.399 11.544 175.339 12.216 175.339 12.888C175.603 11.52 176.131 10.524 176.923 9.9C177.739 9.276 178.687 8.964 179.767 8.964C184.111 8.964 186.319 10.776 186.391 14.4V24.912C186.391 25.44 186.595 25.884 187.003 26.244C187.411 26.604 187.891 26.784 188.443 26.784V27H182.359V13.356C182.359 11.94 182.119 10.908 181.639 10.26C181.183 9.588 180.451 9.252 179.443 9.252C178.963 9.252 178.483 9.36 178.003 9.576C177.523 9.792 177.091 10.116 176.707 10.548C176.347 10.98 176.035 11.52 175.771 12.168C175.531 12.816 175.411 13.584 175.411 14.472C175.459 14.856 175.555 15.228 175.699 15.588C175.843 15.924 176.047 16.188 176.311 16.38V27H172.279V11.088C172.279 10.536 172.075 10.092 171.667 9.756C171.259 9.396 170.779 9.216 170.227 9.216V9Z" fill="#232323"/>
</svg>
