<svg width="60" height="40" viewBox="0 0 60 40" fill="none" xmlns="http://www.w3.org/2000/svg">
<rect x="0.5" y="0.5" width="59" height="39" rx="7.5" fill="white"/>
<rect x="0.5" y="0.5" width="59" height="39" rx="7.5" stroke="#E8E5E5"/>
<path fill-rule="evenodd" clip-rule="evenodd" d="M14.5882 14.728C15.3731 14.7943 16.1581 14.3307 16.6487 13.7431C17.1311 13.1389 17.45 12.3277 17.3683 11.5C16.6732 11.5331 15.8147 11.9635 15.3241 12.5677C14.8743 13.0892 14.49 13.9334 14.5882 14.728ZM23.926 25.3888V12.485H28.7094C31.1788 12.485 32.9041 14.2066 32.9041 16.7228C32.9041 19.239 31.1461 20.9772 28.644 20.9772H25.9048V25.3888H23.926ZM17.36 14.8853C16.6685 14.845 16.0375 15.0958 15.5278 15.2984C15.1998 15.4288 14.9221 15.5392 14.7108 15.5392C14.4736 15.5392 14.1844 15.4229 13.8597 15.2923C13.4342 15.1212 12.9477 14.9256 12.4376 14.935C11.2683 14.9515 10.1808 15.6219 9.58393 16.6897C8.35742 18.8252 9.26504 21.987 10.4507 23.7251C11.0312 24.586 11.7262 25.5295 12.642 25.4964C13.0449 25.481 13.3348 25.3566 13.6347 25.2277C13.98 25.0794 14.3387 24.9253 14.8988 24.9253C15.4395 24.9253 15.7825 25.0754 16.1118 25.2194C16.4249 25.3564 16.7256 25.4879 17.172 25.4799C18.1205 25.4633 18.7174 24.6191 19.2979 23.7583C19.9244 22.8344 20.1997 21.9327 20.2415 21.7959C20.2439 21.7881 20.2455 21.7827 20.2464 21.78C20.2454 21.779 20.2377 21.7754 20.224 21.7691C20.0146 21.6721 18.4138 20.9302 18.3985 18.941C18.3831 17.2714 19.6682 16.4254 19.8705 16.2922C19.8827 16.2842 19.8911 16.2787 19.8948 16.2758C19.0771 15.0508 17.8016 14.9184 17.36 14.8853ZM36.5183 25.4882C37.7612 25.4882 38.9141 24.8508 39.4374 23.841H39.4783V25.3888H41.3099V18.9659C41.3099 17.1035 39.8381 15.9034 37.5731 15.9034C35.4717 15.9034 33.9181 17.1201 33.8609 18.7921H35.6434C35.7906 17.9975 36.5183 17.476 37.5159 17.476C38.726 17.476 39.4047 18.0471 39.4047 19.0983V19.8101L36.9353 19.9591C34.6377 20.0998 33.3948 21.0517 33.3948 22.7071C33.3948 24.379 34.6786 25.4882 36.5183 25.4882ZM37.0497 23.9569C35.9949 23.9569 35.3244 23.4437 35.3244 22.6574C35.3244 21.8463 35.9704 21.3745 37.205 21.3L39.4046 21.1593V21.8877C39.4046 23.0961 38.3907 23.9569 37.0497 23.9569ZM47.3852 25.8937C46.592 28.1534 45.6844 28.8983 43.7547 28.8983C43.6075 28.8983 43.1169 28.8817 43.0024 28.8486V27.3008C43.1251 27.3174 43.4276 27.3339 43.583 27.3339C44.4579 27.3339 44.9485 26.9615 45.251 25.9931L45.4309 25.4219L42.0784 16.0275H44.1472L46.4775 23.6507H46.5184L48.8488 16.0275H50.8603L47.3852 25.8937ZM25.9046 14.1735H28.1859C29.9031 14.1735 30.8843 15.1005 30.8843 16.7311C30.8843 18.3616 29.9031 19.2969 28.1778 19.2969H25.9046V14.1735Z" fill="#232323"/>
</svg>
