<svg width="7" height="4" viewBox="0 0 7 4" fill="none" xmlns="http://www.w3.org/2000/svg">
<path d="M3.45933 3.48337L0.575264 0.455972C0.527117 0.405458 0.500262 0.33835 0.500267 0.268567C0.500273 0.198783 0.527139 0.13168 0.575294 0.0811743L0.578553 0.0779151C0.601898 0.053346 0.629996 0.033783 0.66114 0.0204157C0.692283 0.00704844 0.725821 0.000156565 0.759712 0.000159313C0.793603 0.00016206 0.827139 0.00705937 0.85828 0.0204317C0.889422 0.033804 0.917517 0.0533716 0.940858 0.0779445L3.65655 2.9288L6.37162 0.0783847C6.39496 0.0538157 6.42306 0.0342526 6.45421 0.0208853C6.48535 0.00751805 6.51889 0.000626176 6.55278 0.000628923C6.58667 0.00063167 6.62021 0.00752898 6.65135 0.0209013C6.68249 0.0342736 6.71058 0.0538412 6.73392 0.0784141L6.73718 0.0816738C6.78533 0.132188 6.81219 0.199295 6.81218 0.269078C6.81217 0.338862 6.78531 0.405965 6.73715 0.456471L3.8526 3.48341C3.82723 3.51003 3.79672 3.53122 3.76292 3.5457C3.72912 3.56018 3.69273 3.56764 3.65596 3.56764C3.61918 3.56764 3.5828 3.56017 3.549 3.54568C3.5152 3.5312 3.48469 3.51 3.45933 3.48337Z" />
</svg>
