<svg width="24" height="24" viewBox="0 0 24 24" fill="none" xmlns="http://www.w3.org/2000/svg">
<path d="M3.54688 20.938H20.4469C20.5795 20.938 20.7067 20.8853 20.8004 20.7916C20.8942 20.6978 20.9469 20.5706 20.9469 20.438C20.9469 20.3054 20.8942 20.1782 20.8004 20.0845C20.7067 19.9907 20.5795 19.938 20.4469 19.938H3.54688C3.41427 19.938 3.28709 19.9907 3.19332 20.0845C3.09955 20.1782 3.04688 20.3054 3.04688 20.438C3.04688 20.5706 3.09955 20.6978 3.19332 20.7916C3.28709 20.8853 3.41427 20.938 3.54688 20.938ZM9.70887 17.18C10.1313 17.0618 10.5167 16.8381 10.8289 16.53L20.3689 6.99002C20.6956 6.66203 20.879 6.21796 20.879 5.75502C20.879 5.29209 20.6956 4.84801 20.3689 4.52002L19.4289 3.59002C19.0962 3.27228 18.6539 3.09497 18.1939 3.09497C17.7339 3.09497 17.2915 3.27228 16.9589 3.59002L7.41887 13.12C7.11021 13.4302 6.88937 13.8166 6.77888 14.24L6.03887 17C6.00377 17.1261 6.00286 17.2592 6.03625 17.3858C6.06965 17.5123 6.13613 17.6277 6.22887 17.72C6.37042 17.8592 6.5604 17.938 6.75888 17.94L9.70887 17.18ZM10.1189 15.82C9.93452 16.0077 9.70312 16.1424 9.44887 16.21L8.47887 16.47L7.47888 15.47L7.73887 14.5C7.80882 14.2468 7.94319 14.0159 8.12887 13.83L8.50887 13.46L10.4989 15.45L10.1189 15.82ZM11.2089 14.74L9.21887 12.75L15.9489 6.02002L17.9389 8.01002L11.2089 14.74ZM19.6589 6.29002L18.6489 7.30002L16.6589 5.31002L17.6689 4.29002C17.7384 4.22024 17.821 4.16487 17.9119 4.12708C18.0029 4.0893 18.1004 4.06985 18.1989 4.06985C18.2974 4.06985 18.3949 4.0893 18.4858 4.12708C18.5768 4.16487 18.6594 4.22024 18.7289 4.29002L19.6589 5.23002C19.7984 5.37116 19.8766 5.56159 19.8766 5.76002C19.8766 5.95845 19.7984 6.14888 19.6589 6.29002Z" fill="#292929"/>
</svg>
