<svg width="61" height="61" viewBox="0 0 61 61" fill="none" xmlns="http://www.w3.org/2000/svg">
<ellipse cx="30.5" cy="30.5" rx="30" ry="30.5" fill="#FBFBFB"/>
<g clip-path="url(#clip0_3626_16371)">
<path d="M45.5 30.5C45.5 22.0777 38.7842 15.25 30.5 15.25C22.2158 15.25 15.5 22.0777 15.5 30.5C15.5 38.1117 20.9853 44.4208 28.1562 45.5647V34.9082H24.3477V30.5H28.1562V27.1402C28.1562 23.3182 30.3957 21.207 33.822 21.207C35.4631 21.207 37.1797 21.5049 37.1797 21.5049V25.2578H35.2883C33.4249 25.2578 32.8438 26.4334 32.8438 27.6394V30.5H37.0039L36.3389 34.9082H32.8438V45.5647C40.0147 44.4208 45.5 38.1118 45.5 30.5Z" fill="#495C80"/>
<path d="M36.3389 34.9082L37.0039 30.5H32.8438V27.6394C32.8438 26.4333 33.4249 25.2578 35.2883 25.2578H37.1797V21.5049C37.1797 21.5049 35.4631 21.207 33.8219 21.207C30.3957 21.207 28.1562 23.3182 28.1562 27.1402V30.5H24.3477V34.9082H28.1562V45.5647C28.9316 45.6883 29.7152 45.7502 30.5 45.75C31.2848 45.7502 32.0684 45.6883 32.8438 45.5647V34.9082H36.3389Z" fill="#FBFBFB"/>
</g>
<defs>
<clipPath id="clip0_3626_16371">
<rect width="30" height="30.5" fill="white" transform="translate(15.5 15.25)"/>
</clipPath>
</defs>
</svg>
