<svg width="30" height="31" viewBox="0 0 30 31" fill="none" xmlns="http://www.w3.org/2000/svg">
<g clip-path="url(#clip0_5101_14078)">
<path d="M30 15.5C30 7.07771 23.2842 0.25 15 0.25C6.71578 0.25 0 7.07771 0 15.5C0 23.1117 5.48531 29.4208 12.6562 30.5647V19.9082H8.84766V15.5H12.6562V12.1402C12.6562 8.3182 14.8957 6.20703 18.322 6.20703C19.9631 6.20703 21.6797 6.50488 21.6797 6.50488V10.2578H19.7883C17.9249 10.2578 17.3438 11.4334 17.3438 12.6394V15.5H21.5039L20.8389 19.9082H17.3438V30.5647C24.5147 29.4208 30 23.1118 30 15.5Z" fill="#3D5A98"/>
<path d="M20.8389 19.9082L21.5039 15.5H17.3438V12.6394C17.3438 11.4333 17.9249 10.2578 19.7883 10.2578H21.6797V6.50488C21.6797 6.50488 19.9631 6.20703 18.3219 6.20703C14.8957 6.20703 12.6562 8.3182 12.6562 12.1402V15.5H8.84766V19.9082H12.6562V30.5647C13.4316 30.6883 14.2152 30.7502 15 30.75C15.7848 30.7502 16.5684 30.6883 17.3438 30.5647V19.9082H20.8389Z" fill="#FBFBFB"/>
</g>
<defs>
<clipPath id="clip0_5101_14078">
<rect width="30" height="30.5" fill="white" transform="translate(0 0.25)"/>
</clipPath>
</defs>
</svg>
