<svg width="26" height="26" viewBox="0 0 26 26" fill="none" xmlns="http://www.w3.org/2000/svg">
<path d="M5.41663 13V4.33337M20.5833 21.6667V18.4167M5.41663 21.6667V17.3334M20.5833 14.0834V4.33337M13 7.58337V4.33337M13 21.6667V11.9167"  stroke-width="1.33333" stroke-linecap="round"/>
<path d="M5.41667 17.3333C6.61328 17.3333 7.58333 16.3633 7.58333 15.1667C7.58333 13.97 6.61328 13 5.41667 13C4.22005 13 3.25 13.97 3.25 15.1667C3.25 16.3633 4.22005 17.3333 5.41667 17.3333Z"  stroke-width="1.33333" stroke-linecap="round"/>
<path d="M13 11.9167C14.1967 11.9167 15.1667 10.9467 15.1667 9.75004C15.1667 8.55342 14.1967 7.58337 13 7.58337C11.8034 7.58337 10.8334 8.55342 10.8334 9.75004C10.8334 10.9467 11.8034 11.9167 13 11.9167Z"  stroke-width="1.33333" stroke-linecap="round"/>
<path d="M20.5833 18.4167C21.7799 18.4167 22.75 17.4467 22.75 16.25C22.75 15.0534 21.7799 14.0834 20.5833 14.0834C19.3867 14.0834 18.4166 15.0534 18.4166 16.25C18.4166 17.4467 19.3867 18.4167 20.5833 18.4167Z"  stroke-width="1.33333" stroke-linecap="round"/>
</svg>
