<svg width="84" height="35" viewBox="0 0 84 35" fill="none" xmlns="http://www.w3.org/2000/svg">
<path fill-rule="evenodd" clip-rule="evenodd" d="M38.5106 26.8943V16.8043H43.7183C45.8522 16.8043 47.6534 16.0892 49.1217 14.679L49.4741 14.3215C52.1562 11.4018 51.98 6.85332 49.1217 4.15206C47.6925 2.72198 45.7348 1.94736 43.7183 1.98708H35.3586V26.8943H38.5106ZM38.511 13.7454V5.0458H43.7978C44.9335 5.0458 46.0104 5.48277 46.8132 6.27725C48.5167 7.94568 48.5559 10.7264 46.9111 12.4544C46.1083 13.3085 44.9726 13.7852 43.7978 13.7454H38.511Z" fill="white"/>
<path fill-rule="evenodd" clip-rule="evenodd" d="M64.177 11.1833C62.8261 9.93197 60.9858 9.29638 58.6561 9.29638C55.6607 9.29638 53.4093 10.4087 51.9214 12.6134L54.7014 14.3811C55.7194 12.8716 57.1094 12.1168 58.8714 12.1168C59.9873 12.1168 61.0641 12.5339 61.906 13.2887C62.7282 14.0037 63.1981 15.0365 63.1981 16.129V16.8639C61.9843 16.1886 60.4572 15.831 58.5778 15.831C56.3851 15.831 54.6231 16.3475 53.3114 17.4001C51.9997 18.4528 51.334 19.8432 51.334 21.6109C51.2949 23.2198 51.9801 24.7492 53.1939 25.782C54.4273 26.8943 55.9935 27.4504 57.8338 27.4504C60.0069 27.4504 61.7298 26.4772 63.0415 24.5307H63.1785V26.8943H66.1935V16.3872C66.1935 14.1825 65.5278 12.4346 64.177 11.1833ZM55.6221 23.756C54.9759 23.2793 54.5843 22.5047 54.5843 21.6705C54.5843 20.737 55.0151 19.9624 55.8571 19.3466C56.7186 18.7309 57.7956 18.4131 59.0683 18.4131C60.8306 18.3932 62.2012 18.7905 63.1803 19.585C63.1803 20.9356 62.6516 22.1075 61.6138 23.1006C60.6739 24.054 59.4012 24.5902 58.0697 24.5902C57.1886 24.6101 56.327 24.3122 55.6221 23.756Z" fill="white"/>
<path d="M72.9674 34.3823L83.5001 9.85253H80.074L75.1992 22.0876H75.1405L70.1482 9.85253H66.7221L73.633 25.8019L69.7175 34.3823H72.9674Z" fill="white"/>
<path d="M27.6288 14.6194C27.6288 13.6462 27.5505 12.6729 27.3939 11.7195H14.1007V17.2214H21.7164C21.4031 18.9891 20.3851 20.5781 18.8972 21.5712V25.1464H23.4392C26.1017 22.6636 27.6288 18.9891 27.6288 14.6194Z" fill="#495C80"/>
<path d="M14.1012 28.6024C17.8993 28.6024 21.1094 27.3312 23.4392 25.1464L18.8972 21.5712C17.6246 22.4451 16.0003 22.9417 14.1012 22.9417C10.4206 22.9417 7.3078 20.4192 6.19187 17.0426H1.51283V20.737C3.90129 25.5635 8.77612 28.6024 14.1012 28.6024Z" fill="#34A853"/>
<path d="M6.19187 17.0426C5.60445 15.2749 5.60498 13.3483 6.1924 11.5607V7.8862H1.51261C-0.504204 11.9182 -0.504204 16.6851 1.51261 20.7172L6.19187 17.0426Z" fill="#F79E1B"/>
<path d="M14.1012 5.66159C16.1177 5.62186 18.0559 6.39649 19.5046 7.8067L23.5376 3.71509C20.973 1.29191 17.6056 -0.0388599 14.1012 0.000864422C8.77612 0.000864422 3.90108 3.05969 1.51261 7.8862L6.19187 11.5805C7.3078 8.18408 10.4206 5.66159 14.1012 5.66159Z" fill="#EF5555"/>
</svg>
