<svg width="60" height="40" viewBox="0 0 60 40" fill="none" xmlns="http://www.w3.org/2000/svg">
<rect x="0.5" y="0.5" width="59" height="39" rx="7.5" fill="white"/>
<rect x="0.5" y="0.5" width="59" height="39" rx="7.5" stroke="#E8E5E5"/>
<path fill-rule="evenodd" clip-rule="evenodd" d="M28.2553 24.9471V19.9021H30.8591C31.9261 19.9021 32.8267 19.5446 33.5609 18.8395L33.737 18.6607C35.0781 17.2009 34.99 14.9267 33.5609 13.576C32.8463 12.861 31.8674 12.4737 30.8591 12.4935H26.6793V24.9471H28.2553ZM28.2555 18.3727V14.0229H30.8989C31.4667 14.0229 32.0052 14.2414 32.4066 14.6386C33.2584 15.4728 33.278 16.8632 32.4556 17.7272C32.0542 18.1542 31.4863 18.3926 30.8989 18.3727H28.2555Z" fill="#232323"/>
<path fill-rule="evenodd" clip-rule="evenodd" d="M41.0885 17.0916C40.4131 16.466 39.4929 16.1482 38.328 16.1482C36.8303 16.1482 35.7046 16.7043 34.9607 17.8067L36.3507 18.6905C36.8597 17.9358 37.5547 17.5584 38.4357 17.5584C38.9937 17.5584 39.5321 17.767 39.953 18.1443C40.3641 18.5019 40.599 19.0183 40.599 19.5645V19.9319C39.9921 19.5943 39.2286 19.4155 38.2889 19.4155C37.1925 19.4155 36.3115 19.6737 35.6557 20.2001C34.9998 20.7264 34.667 21.4216 34.667 22.3055C34.6474 23.1099 34.9901 23.8746 35.597 24.391C36.2137 24.9471 36.9968 25.2252 37.9169 25.2252C39.0035 25.2252 39.8649 24.7386 40.5207 23.7653H40.5892V24.9471H42.0967V19.6936C42.0967 18.5912 41.7639 17.7173 41.0885 17.0916ZM36.8111 23.378C36.488 23.1397 36.2922 22.7524 36.2922 22.3352C36.2922 21.8685 36.5076 21.4812 36.9285 21.1733C37.3593 20.8654 37.8978 20.7065 38.5342 20.7065C39.4153 20.6966 40.1006 20.8952 40.5901 21.2925C40.5901 21.9678 40.3258 22.5537 39.8069 23.0503C39.337 23.527 38.7006 23.7951 38.0349 23.7951C37.5943 23.8051 37.1635 23.6561 36.8111 23.378Z" fill="#232323"/>
<path d="M45.4837 28.6912L50.7501 16.4263H49.037L46.5996 22.5438H46.5702L44.0741 16.4263H42.3611L45.8165 24.4009L43.8587 28.6912H45.4837Z" fill="#232323"/>
<path d="M22.8144 18.8097C22.8144 18.3231 22.7752 17.8365 22.6969 17.3598H16.0503V20.1107H19.8582C19.7016 20.9945 19.1925 21.789 18.4486 22.2856V24.0732H20.7196C22.0509 22.8318 22.8144 20.9945 22.8144 18.8097Z" fill="#495C80"/>
<path d="M16.0506 25.8012C17.9496 25.8012 19.5547 25.1656 20.7196 24.0732L18.4486 22.2856C17.8123 22.7226 17.0001 22.9708 16.0506 22.9708C14.2103 22.9708 12.6539 21.7096 12.0959 20.0213H9.75641V21.8685C10.9506 24.2817 13.3881 25.8012 16.0506 25.8012Z" fill="#34A853"/>
<path d="M12.0959 20.0213C11.8022 19.1374 11.8025 18.1741 12.0962 17.2804V15.4431H9.75631C8.7479 17.4591 8.7479 19.8426 9.75631 21.8586L12.0959 20.0213Z" fill="#F79E1B"/>
<path d="M16.0506 14.3308C17.0589 14.3109 18.028 14.6982 18.7523 15.4034L20.7688 13.3575C19.4865 12.146 17.8028 11.4806 16.0506 11.5004C13.3881 11.5004 10.9505 13.0298 9.75631 15.4431L12.0959 17.2903C12.6539 15.592 14.2103 14.3308 16.0506 14.3308Z" fill="#EF5555"/>
</svg>
