<svg width="30" height="29" viewBox="0 0 30 29" fill="none" xmlns="http://www.w3.org/2000/svg">
<path d="M10.4508 1.69897C7.45335 2.67269 4.86834 4.52083 3.07548 6.97195C1.28262 9.42306 0.376419 12.3479 0.489976 15.317C0.603533 18.286 1.73087 21.1427 3.70638 23.4674C5.6819 25.7922 8.40148 27.4624 11.4657 28.2328C13.9499 28.8331 16.5526 28.8594 19.05 28.3097C21.3125 27.8338 23.4042 26.8159 25.1203 25.3556C26.9065 23.7893 28.2029 21.7968 28.8703 19.5923C29.5955 17.195 29.7246 14.6739 29.2477 12.2225H15.2977V17.6412H23.3766C23.2151 18.5055 22.8691 19.3303 22.3593 20.0664C21.8495 20.8026 21.1863 21.4348 20.4094 21.9253C19.423 22.5366 18.3109 22.9478 17.1446 23.1324C15.9749 23.3361 14.7752 23.3361 13.6055 23.1324C12.4199 22.9031 11.2984 22.4449 10.3125 21.787C8.72851 20.737 7.53912 19.2454 6.9141 17.5249C6.27868 15.7722 6.27868 13.8721 6.9141 12.1194C7.359 10.8908 8.09449 9.77223 9.06566 8.84709C10.177 7.76894 11.5841 6.99827 13.1324 6.61964C14.6808 6.24101 16.3106 6.26905 17.843 6.70068C19.0402 7.04464 20.1349 7.64589 21.0399 8.45644C21.9508 7.60782 22.8602 6.75701 23.768 5.90401C24.2368 5.44531 24.7477 5.00857 25.2094 4.5389C23.8278 3.33515 22.2063 2.39843 20.4375 1.78237C17.2165 0.687191 13.6922 0.65776 10.4508 1.69897Z" fill="#FBFBFB"/>
<path d="M10.4504 1.69881C13.6915 0.656898 17.2158 0.685555 20.4371 1.78002C22.2062 2.40026 23.827 3.3415 25.2066 4.54972C24.7379 5.01939 24.2434 5.45833 23.7652 5.91482C22.8559 6.7649 21.9473 7.61206 21.0395 8.45628C20.1345 7.64573 19.0398 7.04449 17.8426 6.70053C16.3106 6.26738 14.6809 6.23773 13.1322 6.61481C11.5834 6.99189 10.1755 7.76114 9.06289 8.83816C8.09172 9.7633 7.35623 10.8819 6.91133 12.1105L2.05273 8.58796C3.79182 5.3586 6.80293 2.88839 10.4504 1.69881Z" fill="#E33629"/>
<path d="M0.764251 12.0777C1.0252 10.8657 1.45876 9.69205 2.05331 8.58813L6.91191 12.1194C6.27649 13.8721 6.27649 15.7722 6.91191 17.5249C5.29316 18.6954 3.67363 19.8718 2.05331 21.054C0.565385 18.2806 0.111593 15.1207 0.764251 12.0777Z" fill="#F8BD00"/>
<path d="M15.2979 12.2202H29.2479C29.7248 14.6716 29.5958 17.1926 28.8706 19.59C28.2032 21.7945 26.9067 23.787 25.1206 25.3533C23.5526 24.2076 21.9776 23.0708 20.4096 21.9252C21.187 21.4342 21.8505 20.8012 22.3604 20.0643C22.8702 19.3275 23.216 18.5017 23.3768 17.6367H15.2979C15.2956 15.8327 15.2979 14.0264 15.2979 12.2202Z" fill="#587DBD"/>
<path d="M2.05078 21.054C3.67109 19.8835 5.29062 18.7071 6.90937 17.5249C7.53564 19.246 8.72673 20.7377 10.3125 21.787C11.3014 22.4418 12.4254 22.8963 13.6125 23.1214C14.7822 23.3251 15.9819 23.3251 17.1516 23.1214C18.3179 22.9368 19.43 22.5256 20.4164 21.9143C21.9844 23.0599 23.5594 24.1968 25.1273 25.3424C23.4115 26.8035 21.3197 27.8222 19.057 28.2987C16.5596 28.8485 13.9569 28.8221 11.4727 28.2218C9.50789 27.7306 7.67268 26.8646 6.08203 25.6782C4.39858 24.4264 3.02352 22.8491 2.05078 21.054Z" fill="#319F43"/>
</svg>
