<svg width="61" height="61" viewBox="0 0 61 61" fill="none" xmlns="http://www.w3.org/2000/svg">
<ellipse cx="30.5" cy="30.5" rx="30" ry="30.5" fill="#FBFBFB"/>
<path d="M25.9508 17.699C22.9533 18.6727 20.3683 20.5208 18.5755 22.9719C16.7826 25.4231 15.8764 28.3479 15.99 31.317C16.1035 34.286 17.2309 37.1427 19.2064 39.4674C21.1819 41.7922 23.9015 43.4624 26.9657 44.2328C29.4499 44.8331 32.0526 44.8594 34.55 44.3097C36.8125 43.8338 38.9042 42.8159 40.6203 41.3556C42.4065 39.7893 43.7029 37.7968 44.3703 35.5923C45.0955 33.195 45.2246 30.6739 44.7477 28.2225H30.7977V33.6412H38.8766C38.7151 34.5055 38.3691 35.3303 37.8593 36.0664C37.3495 36.8026 36.6863 37.4348 35.9094 37.9253C34.923 38.5366 33.8109 38.9478 32.6446 39.1324C31.4749 39.3361 30.2752 39.3361 29.1055 39.1324C27.9199 38.9031 26.7984 38.4449 25.8125 37.787C24.2285 36.737 23.0391 35.2454 22.4141 33.5249C21.7787 31.7722 21.7787 29.8721 22.4141 28.1194C22.859 26.8908 23.5945 25.7722 24.5657 24.8471C25.677 23.7689 27.0841 22.9983 28.6324 22.6196C30.1808 22.241 31.8106 22.2691 33.343 22.7007C34.5402 23.0446 35.6349 23.6459 36.5399 24.4564C37.4508 23.6078 38.3602 22.757 39.268 21.904C39.7368 21.4453 40.2477 21.0086 40.7094 20.5389C39.3278 19.3352 37.7063 18.3984 35.9375 17.7824C32.7165 16.6872 29.1922 16.6578 25.9508 17.699Z" fill="#FBFBFB"/>
<path d="M25.9509 17.6988C29.192 16.6569 32.7163 16.6856 35.9376 17.78C37.7066 18.4003 39.3275 19.3415 40.7071 20.5497C40.2384 21.0194 39.7438 21.4583 39.2657 21.9148C38.3563 22.7649 37.4478 23.6121 36.5399 24.4563C35.635 23.6457 34.5403 23.0445 33.3431 22.7005C31.8111 22.2674 30.1814 22.2377 28.6326 22.6148C27.0839 22.9919 25.676 23.7611 24.5634 24.8382C23.5922 25.7633 22.8567 26.8819 22.4118 28.1105L17.5532 24.588C19.2923 21.3586 22.3034 18.8884 25.9509 17.6988Z" fill="#EF5555"/>
<path d="M16.2643 28.0777C16.5252 26.8657 16.9588 25.6921 17.5533 24.5881L22.4119 28.1194C21.7765 29.8721 21.7765 31.7722 22.4119 33.5249C20.7932 34.6954 19.1736 35.8718 17.5533 37.054C16.0654 34.2806 15.6116 31.1207 16.2643 28.0777Z" fill="#F79E1B"/>
<path d="M30.7974 28.2202H44.7474C45.2244 30.6716 45.0953 33.1926 44.3701 35.59C43.7027 37.7945 42.4062 39.787 40.6201 41.3533C39.0521 40.2076 37.4771 39.0708 35.9091 37.9252C36.6865 37.4342 37.35 36.8012 37.8599 36.0643C38.3697 35.3275 38.7155 34.5017 38.8763 33.6367H30.7974C30.7951 31.8327 30.7974 30.0264 30.7974 28.2202Z" fill="#495C80"/>
<path d="M17.5508 37.054C19.1711 35.8835 20.7906 34.7071 22.4094 33.5249C23.0356 35.246 24.2267 36.7377 25.8125 37.787C26.8014 38.4418 27.9254 38.8963 29.1125 39.1214C30.2822 39.3251 31.4819 39.3251 32.6516 39.1214C33.8179 38.9368 34.93 38.5256 35.9164 37.9143C37.4844 39.0599 39.0594 40.1968 40.6273 41.3424C38.9115 42.8035 36.8197 43.8222 34.557 44.2987C32.0596 44.8485 29.4569 44.8221 26.9727 44.2218C25.0079 43.7306 23.1727 42.8646 21.582 41.6782C19.8986 40.4264 18.5235 38.8491 17.5508 37.054Z" fill="#34A853"/>
</svg>
