<svg width="1440" height="70" viewBox="0 0 1440 70" fill="none" xmlns="http://www.w3.org/2000/svg">
<path d="M142.248 17.2016C133.433 17.9184 2.46675 36.5535 -4 69.3441H163.661H1439.58V33.3282L1418.58 29.0278L1398.09 31.178L1372.1 39.7788L1331.61 29.0278L1299.62 15.0514L1271.13 6.98817L1244.63 1.61265L1221.14 0L1198.15 5.91306L1133.2 33.3282L1073.32 39.7788L1029.41 33.3282L987.21 14.5139L970.215 7.52572L949.221 2.68776L899.235 10.751L823.325 33.3282L744.485 42.4665L709.555 33.3282L652.171 19.3518L603.822 12.9012L538.901 19.3518L475.529 33.3282L418.876 42.4665L378.725 36.5535L326.83 22.0396L234.43 12.9012H186.444L142.248 17.2016Z" fill="#E5E5E5"/>
</svg>
