<svg width="16" height="16" viewBox="0 0 16 16" fill="none" xmlns="http://www.w3.org/2000/svg">
<mask id="mask0_4127_6857" style="mask-type:alpha" maskUnits="userSpaceOnUse" x="1" y="2" width="14" height="14">
<path fill-rule="evenodd" clip-rule="evenodd" d="M1.33398 2H14.9823V15.0007H1.33398V2Z" fill="white"/>
</mask>
<g mask="url(#mask0_4127_6857)">
<path fill-rule="evenodd" clip-rule="evenodd" d="M2.54996 8.08208C3.48462 10.9901 7.17729 13.3414 8.15862 13.9234C9.14329 13.3354 12.8626 10.9581 13.7673 8.08475C14.3613 6.22741 13.81 3.87475 11.6193 3.16875C10.558 2.82808 9.31996 3.03541 8.46529 3.69675C8.28662 3.83408 8.03862 3.83675 7.85862 3.70075C6.95329 3.02008 5.77062 2.82075 4.69262 3.16875C2.50529 3.87408 1.95596 6.22675 2.54996 8.08208ZM8.15929 15.0007C8.07662 15.0007 7.99462 14.9807 7.91996 14.9401C7.71129 14.8261 2.79596 12.1167 1.59796 8.38741C1.59729 8.38741 1.59729 8.38675 1.59729 8.38675C0.845289 6.03875 1.68262 3.08808 4.38596 2.21675C5.65529 1.80608 7.03862 1.98675 8.15729 2.69275C9.24129 2.00741 10.6813 1.81808 11.9253 2.21675C14.6313 3.08941 15.4713 6.03941 14.72 8.38675C13.5606 12.0734 8.60929 14.8234 8.39929 14.9387C8.32462 14.9801 8.24196 15.0007 8.15929 15.0007Z" fill="#232323"/>
</g>
<path fill-rule="evenodd" clip-rule="evenodd" d="M12.1038 7.08335C11.8458 7.08335 11.6271 6.88535 11.6058 6.62401C11.5618 6.07601 11.1951 5.61335 10.6731 5.44468C10.4098 5.35935 10.2658 5.07735 10.3504 4.81535C10.4364 4.55268 10.7158 4.41001 10.9798 4.49268C11.8884 4.78668 12.5251 5.59135 12.6031 6.54268C12.6251 6.81801 12.4204 7.05935 12.1451 7.08135C12.1311 7.08268 12.1178 7.08335 12.1038 7.08335Z" fill="#232323"/>
</svg>
