<svg width="4" height="6" viewBox="0 0 4 6" fill="none" xmlns="http://www.w3.org/2000/svg">
<path d="M0.0944686 3.18692L3.48887 5.9287C3.54551 5.97447 3.62076 6 3.69901 6C3.77726 6 3.8525 5.97447 3.90914 5.9287L3.9128 5.9256C3.94035 5.90341 3.96229 5.8767 3.97728 5.8471C3.99227 5.81749 4 5.78561 4 5.7534C4 5.72118 3.99227 5.6893 3.97728 5.6597C3.96229 5.63009 3.94035 5.60339 3.9128 5.5812L0.71634 2.99948L3.9128 0.418803C3.94035 0.396614 3.96229 0.369906 3.97728 0.340302C3.99227 0.310699 4 0.278819 4 0.246603C4 0.214386 3.99227 0.182508 3.97728 0.152904C3.96229 0.123301 3.94035 0.0965915 3.9128 0.0744028L3.90914 0.0713048C3.8525 0.0255337 3.77726 0 3.69901 0C3.62076 0 3.54551 0.0255337 3.48887 0.0713048L0.0944686 2.81308C0.0646162 2.8372 0.0408504 2.8662 0.0246118 2.89832C0.00837326 2.93045 0 2.96505 0 3C0 3.03495 0.00837326 3.06955 0.0246118 3.10168C0.0408504 3.1338 0.0646162 3.1628 0.0944686 3.18692Z" />
</svg>
