<svg width="24" height="24" viewBox="0 0 24 24" fill="none" xmlns="http://www.w3.org/2000/svg">
<path d="M4 18.6533C4 17.5925 4.42143 16.575 5.17157 15.8249C5.92172 15.0747 6.93913 14.6533 8 14.6533H16C17.0609 14.6533 18.0783 15.0747 18.8284 15.8249C19.5786 16.575 20 17.5925 20 18.6533C20 19.1838 19.7893 19.6925 19.4142 20.0675C19.0391 20.4426 18.5304 20.6533 18 20.6533H6C5.46957 20.6533 4.96086 20.4426 4.58579 20.0675C4.21071 19.6925 4 19.1838 4 18.6533Z"   stroke-linejoin="round"/>
<path d="M12 10.6533C13.6569 10.6533 15 9.31017 15 7.65332C15 5.99647 13.6569 4.65332 12 4.65332C10.3431 4.65332 9 5.99647 9 7.65332C9 9.31017 10.3431 10.6533 12 10.6533Z"  />
</svg>
