<svg width="4" height="6" viewBox="0 0 4 6" fill="none" xmlns="http://www.w3.org/2000/svg">
<path d="M3.90553 2.81308L0.511125 0.0713045C0.454488 0.0255335 0.379241 0 0.300992 0C0.222743 0 0.147497 0.0255335 0.0908597 0.0713045L0.0872049 0.0744026C0.059653 0.0965915 0.0377142 0.1233 0.0227225 0.152904C0.00773072 0.182507 0 0.214387 0 0.246603C0 0.278819 0.00773072 0.310699 0.0227225 0.340302C0.0377142 0.369906 0.059653 0.396614 0.0872049 0.418803L3.28366 3.00052L0.0872049 5.5812C0.059653 5.60339 0.0377142 5.63009 0.0227225 5.6597C0.00773072 5.6893 0 5.72118 0 5.7534C0 5.78561 0.00773072 5.81749 0.0227225 5.8471C0.0377142 5.8767 0.059653 5.90341 0.0872049 5.9256L0.0908597 5.9287C0.147497 5.97447 0.222743 6 0.300992 6C0.379241 6 0.454488 5.97447 0.511125 5.9287L3.90553 3.18692C3.93538 3.1628 3.95915 3.1338 3.97539 3.10168C3.99163 3.06955 4 3.03495 4 3C4 2.96505 3.99163 2.93045 3.97539 2.89832C3.95915 2.8662 3.93538 2.8372 3.90553 2.81308Z" />
</svg>
