<svg width="99" height="36" viewBox="0 0 99 36" fill="none" xmlns="http://www.w3.org/2000/svg">
<rect y="19.8706" width="24" height="24" transform="rotate(-48.1247 0 19.8706)" fill="#232323"/>
<path d="M50.4062 21.5352C50.4062 21.2305 50.3594 20.957 50.2656 20.7148C50.1797 20.4648 50.0156 20.2383 49.7734 20.0352C49.5312 19.8242 49.1914 19.6172 48.7539 19.4141C48.3164 19.2109 47.75 19 47.0547 18.7812C46.2812 18.5312 45.5469 18.25 44.8516 17.9375C44.1641 17.625 43.5547 17.2617 43.0234 16.8477C42.5 16.4258 42.0859 15.9375 41.7812 15.3828C41.4844 14.8281 41.3359 14.1836 41.3359 13.4492C41.3359 12.7383 41.4922 12.0938 41.8047 11.5156C42.1172 10.9297 42.5547 10.4297 43.1172 10.0156C43.6797 9.59375 44.3438 9.26953 45.1094 9.04297C45.8828 8.81641 46.7305 8.70312 47.6523 8.70312C48.9102 8.70312 50.0078 8.92969 50.9453 9.38281C51.8828 9.83594 52.6094 10.457 53.125 11.2461C53.6484 12.0352 53.9102 12.9375 53.9102 13.9531H50.418C50.418 13.4531 50.3125 13.0156 50.1016 12.6406C49.8984 12.2578 49.5859 11.957 49.1641 11.7383C48.75 11.5195 48.2266 11.4102 47.5938 11.4102C46.9844 11.4102 46.4766 11.5039 46.0703 11.6914C45.6641 11.8711 45.3594 12.1172 45.1562 12.4297C44.9531 12.7344 44.8516 13.0781 44.8516 13.4609C44.8516 13.75 44.9219 14.0117 45.0625 14.2461C45.2109 14.4805 45.4297 14.6992 45.7188 14.9023C46.0078 15.1055 46.3633 15.2969 46.7852 15.4766C47.207 15.6562 47.6953 15.832 48.25 16.0039C49.1797 16.2852 49.9961 16.6016 50.6992 16.9531C51.4102 17.3047 52.0039 17.6992 52.4805 18.1367C52.957 18.5742 53.3164 19.0703 53.5586 19.625C53.8008 20.1797 53.9219 20.8086 53.9219 21.5117C53.9219 22.2539 53.7773 22.918 53.4883 23.5039C53.1992 24.0898 52.7812 24.5859 52.2344 24.9922C51.6875 25.3984 51.0352 25.707 50.2773 25.918C49.5195 26.1289 48.6719 26.2344 47.7344 26.2344C46.8906 26.2344 46.0586 26.125 45.2383 25.9062C44.418 25.6797 43.6719 25.3398 43 24.8867C42.3359 24.4336 41.8047 23.8555 41.4062 23.1523C41.0078 22.4492 40.8086 21.6172 40.8086 20.6562H44.3359C44.3359 21.1875 44.418 21.6367 44.582 22.0039C44.7461 22.3711 44.9766 22.668 45.2734 22.8945C45.5781 23.1211 45.9375 23.2852 46.3516 23.3867C46.7734 23.4883 47.2344 23.5391 47.7344 23.5391C48.3438 23.5391 48.8438 23.4531 49.2344 23.2812C49.6328 23.1094 49.9258 22.8711 50.1133 22.5664C50.3086 22.2617 50.4062 21.918 50.4062 21.5352ZM63.49 11.8555L58.8494 26H55.1111L61.4509 8.9375H63.8298L63.49 11.8555ZM67.3455 26L62.6931 11.8555L62.3181 8.9375H64.7205L71.0955 26H67.3455ZM67.1345 19.6484V22.4023H58.1228V19.6484H67.1345ZM83.8862 23.2578V26H75.2964V23.2578H83.8862ZM76.4331 8.9375V26H72.9175V8.9375H76.4331ZM97.5911 23.2578V26H88.5091V23.2578H97.5911ZM89.6575 8.9375V26H86.1419V8.9375H89.6575ZM96.4075 15.8867V18.5586H88.5091V15.8867H96.4075ZM97.5794 8.9375V11.6914H88.5091V8.9375H97.5794Z" fill="#232323"/>
</svg>
