<svg width="20" height="20" viewBox="0 0 26 26" fill="none" stroke-width="1.33333" xmlns="http://www.w3.org/2000/svg">
<path d="M15.2068 22.6818C15.009 22.6809 14.8151 22.6266 14.6456 22.5247L11.0338 20.358C10.6275 20.1129 10.2912 19.7672 10.0572 19.3543C9.82325 18.9414 9.69956 18.4753 9.69804 18.0007V13.0986C9.69903 12.7526 9.59142 12.415 9.39037 12.1334L4.34746 5.04621C4.2297 4.8826 4.15943 4.68964 4.1444 4.48862C4.12937 4.2876 4.17017 4.08634 4.26228 3.90704C4.3544 3.72774 4.49426 3.57737 4.66643 3.47252C4.83859 3.36767 5.03638 3.31243 5.23796 3.31288H20.7621C20.9639 3.31204 21.1619 3.36704 21.3343 3.4718C21.5067 3.57657 21.6468 3.727 21.739 3.90644C21.8311 4.08589 21.8719 4.28734 21.8566 4.48851C21.8414 4.68967 21.7708 4.8827 21.6526 5.04621L16.6097 12.1334C16.4083 12.4149 16.3004 12.7525 16.301 13.0986V21.5855C16.3007 21.8758 16.1854 22.1541 15.9803 22.3596C15.7752 22.5651 15.4971 22.6809 15.2068 22.6818ZM5.23796 4.40163L10.2722" stroke-width="1.33333"/>
</svg>
