<svg width="19" height="19" viewBox="0 0 19 19" fill="none" xmlns="http://www.w3.org/2000/svg">
<path d="M7.80301 4.07146H11.1959C11.1959 3.62154 11.0171 3.19005 10.699 2.87191C10.3809 2.55377 9.94936 2.37503 9.49944 2.37503C9.04952 2.37503 8.61803 2.55377 8.29989 2.87191C7.98174 3.19005 7.80301 3.62154 7.80301 4.07146ZM6.78516 4.07146C6.78516 3.35159 7.07113 2.6612 7.58015 2.15217C8.08918 1.64315 8.77957 1.35718 9.49944 1.35718C10.2193 1.35718 10.9097 1.64315 11.4187 2.15217C11.9278 2.6612 12.2137 3.35159 12.2137 4.07146H16.4548C16.5898 4.07146 16.7192 4.12508 16.8147 4.22053C16.9101 4.31597 16.9637 4.44542 16.9637 4.58039C16.9637 4.71537 16.9101 4.84482 16.8147 4.94026C16.7192 5.0357 16.5898 5.08932 16.4548 5.08932H15.5659L14.74 14.9985C14.68 15.7194 14.3512 16.3913 13.8189 16.8811C13.2866 17.3709 12.5897 17.6428 11.8663 17.6429H7.13259C6.40922 17.6428 5.71229 17.3709 5.18 16.8811C4.6477 16.3913 4.31892 15.7194 4.25883 14.9985L3.43301 5.08932H2.54408C2.40911 5.08932 2.27966 5.0357 2.18422 4.94026C2.08878 4.84482 2.03516 4.71537 2.03516 4.58039C2.03516 4.44542 2.08878 4.31597 2.18422 4.22053C2.27966 4.12508 2.40911 4.07146 2.54408 4.07146H6.78516ZM5.2733 14.9137C5.31211 15.3801 5.52479 15.815 5.86918 16.132C6.21358 16.449 6.66452 16.6249 7.13259 16.625H11.8663C12.3344 16.6249 12.7853 16.449 13.1297 16.132C13.4741 15.815 13.6868 15.3801 13.7256 14.9137L14.5453 5.08932H4.45426L5.2733 14.9137ZM7.97266 7.46432C8.10763 7.46432 8.23708 7.51794 8.33252 7.61338C8.42797 7.70883 8.48159 7.83827 8.48159 7.97325V13.7411C8.48159 13.8761 8.42797 14.0055 8.33252 14.101C8.23708 14.1964 8.10763 14.25 7.97266 14.25C7.83768 14.25 7.70823 14.1964 7.61279 14.101C7.51735 14.0055 7.46373 13.8761 7.46373 13.7411V7.97325C7.46373 7.83827 7.51735 7.70883 7.61279 7.61338C7.70823 7.51794 7.83768 7.46432 7.97266 7.46432ZM11.5352 7.97325C11.5352 7.83827 11.4815 7.70883 11.3861 7.61338C11.2907 7.51794 11.1612 7.46432 11.0262 7.46432C10.8913 7.46432 10.7618 7.51794 10.6664 7.61338C10.5709 7.70883 10.5173 7.83827 10.5173 7.97325V13.7411C10.5173 13.8761 10.5709 14.0055 10.6664 14.101C10.7618 14.1964 10.8913 14.25 11.0262 14.25C11.1612 14.25 11.2907 14.1964 11.3861 14.101C11.4815 14.0055 11.5352 13.8761 11.5352 13.7411V7.97325Z" fill="#7A7C7F"/>
</svg>
