<svg width="" height="" viewBox="0 0 49 16" fill="none" xmlns="http://www.w3.org/2000/svg">
<g clip-path="url(#clip0_1167_18378)">
<path d="M25.3413 5.09605C25.3134 7.31601 27.3057 8.55475 28.8065 9.29133C30.3484 10.047 30.8664 10.5316 30.8602 11.2075C30.8488 12.2417 29.6303 12.6982 28.4901 12.7159C26.5008 12.7469 25.3442 12.175 24.4247 11.7424L23.7081 15.1196C24.6306 15.5477 26.3389 15.9211 28.1103 15.9375C32.2686 15.9375 34.989 13.8702 35.0038 10.665C35.02 6.59716 29.4171 6.37201 29.4553 4.55379C29.4685 4.00246 29.9909 3.41413 31.1355 3.26454C31.702 3.18897 33.266 3.13114 35.0392 3.9535L35.7351 0.686031C34.7815 0.336345 33.556 0.00150108 32.0301 0.00150108C28.1163 0.00150108 25.3635 2.09692 25.3413 5.09605ZM42.4224 0.282947C41.6631 0.282947 41.0232 0.729018 40.7376 1.41355L34.7978 15.6975H38.953L39.7799 13.396H44.8574L45.3371 15.6975H48.9994L45.8035 0.282947H42.4224ZM43.0037 4.44699L44.2028 10.2353H40.9187L43.0037 4.44699ZM20.3034 0.283139L17.0281 15.6973H20.9876L24.2614 0.282754L20.3034 0.283139ZM14.4458 0.283139L10.3245 10.7747L8.65739 1.85384C8.46177 0.857983 7.68927 0.282947 6.8314 0.282947H0.0943621L0 0.73056C1.38308 1.03283 2.95451 1.52034 3.90655 2.04198C4.48919 2.36063 4.65533 2.63919 4.84673 3.39639L8.00432 15.6975H12.1886L18.6037 0.282947L14.4458 0.283139Z" fill="url(#paint0_linear_1167_18378)"/>
</g>
<defs>
<linearGradient id="paint0_linear_1167_18378" x1="2252.7" y1="47.9051" x2="2299.16" y2="-1588.73" gradientUnits="userSpaceOnUse">
<stop stop-color="#222357"/>
<stop offset="1" stop-color="#254AA5"/>
</linearGradient>
<clipPath id="clip0_1167_18378">
<rect width="49" height="16" fill="white"/>
</clipPath>
</defs>
</svg>
