<svg width="48" height="48" viewBox="0 0 48 48" fill="none" xmlns="http://www.w3.org/2000/svg">
<g clip-path="url(#clip0_722_11698)">
<path d="M27 43.776C36.622 42.328 44 34.026 44 24C44 12.954 35.046 4 24 4C12.954 4 4 12.954 4 24C4 34.026 11.378 42.33 21 43.776V30H18C17.2044 30 16.4413 29.6839 15.8787 29.1213C15.3161 28.5587 15 27.7956 15 27C15 26.2044 15.3161 25.4413 15.8787 24.8787C16.4413 24.3161 17.2044 24 18 24H21V20C21 18.1435 21.7375 16.363 23.0503 15.0503C24.363 13.7375 26.1435 13 28 13H29C29.7956 13 30.5587 13.3161 31.1213 13.8787C31.6839 14.4413 32 15.2044 32 16C32 16.7956 31.6839 17.5587 31.1213 18.1213C30.5587 18.6839 29.7956 19 29 19H28C27.7348 19 27.4804 19.1054 27.2929 19.2929C27.1054 19.4804 27 19.7348 27 20V24H30C30.7956 24 31.5587 24.3161 32.1213 24.8787C32.6839 25.4413 33 26.2044 33 27C33 27.7956 32.6839 28.5587 32.1213 29.1213C31.5587 29.6839 30.7956 30 30 30H27V43.776Z" fill="#E3E3E3"/>
</g>
<defs>
<clipPath id="clip0_722_11698">
<rect width="48" height="48" fill="white"/>
</clipPath>
</defs>
</svg>
