<svg width="38" height="38" viewBox="0 0 38 38" fill="none" xmlns="http://www.w3.org/2000/svg">
<path d="M1 17C1 9.458 1 5.686 3.344 3.344C5.686 1 9.458 1 17 1H21C28.542 1 32.314 1 34.656 3.344C37 5.686 37 9.458 37 17V21C37 28.542 37 32.314 34.656 34.656C32.314 37 28.542 37 21 37H17C9.458 37 5.686 37 3.344 34.656C1 32.314 1 28.542 1 21V17Z" stroke="#E3E3E3" stroke-width="1.33333"/>
<path d="M28 13C29.6569 13 31 11.6569 31 10C31 8.34315 29.6569 7 28 7C26.3431 7 25 8.34315 25 10C25 11.6569 26.3431 13 28 13Z" fill="#E3E3E3"/>
<path d="M19 26C22.866 26 26 22.866 26 19C26 15.134 22.866 12 19 12C15.134 12 12 15.134 12 19C12 22.866 15.134 26 19 26Z" stroke="#E3E3E3" stroke-width="1.33333"/>
</svg>
