<svg width="37" height="37" viewBox="0 0 37 37" fill="none" xmlns="http://www.w3.org/2000/svg">
<path d="M35.3962 25.3994L26.5425 21.4375C26.1993 21.289 25.8244 21.2283 25.4519 21.2611C25.0793 21.2938 24.7208 21.4189 24.4087 21.625C24.3838 21.6408 24.36 21.6584 24.3375 21.6775L19.6875 25.6413C19.584 25.7044 19.4666 25.741 19.3455 25.7478C19.2245 25.7547 19.1037 25.7316 18.9937 25.6806C15.9487 24.2106 12.7969 21.0831 11.3269 18.0738C11.2749 17.9646 11.2507 17.8443 11.2566 17.7236C11.2625 17.6028 11.2982 17.4854 11.3606 17.3819L15.3356 12.655C15.3544 12.6325 15.3712 12.6081 15.3881 12.5838C15.5936 12.2721 15.7183 11.9143 15.7511 11.5424C15.7838 11.1706 15.7235 10.7965 15.5756 10.4538L11.6062 1.615C11.4146 1.16734 11.0829 0.793925 10.661 0.550837C10.239 0.307749 9.74963 0.208108 9.26624 0.266876C6.90668 0.577976 4.74106 1.73737 3.17386 3.52851C1.60666 5.31964 0.745057 7.62003 0.749991 10C0.749991 24.475 12.525 36.25 27 36.25C29.38 36.2549 31.6803 35.3933 33.4715 33.8261C35.2626 32.2589 36.422 30.0933 36.7331 27.7338C36.7915 27.2526 36.6928 26.7654 36.452 26.3448C36.2111 25.9242 35.8408 25.5926 35.3962 25.3994ZM35.25 27.5463C34.9852 29.5445 34.0017 31.378 32.4833 32.7038C30.965 34.0296 29.0157 34.757 27 34.75C13.3537 34.75 2.24999 23.6463 2.24999 10C2.24301 7.98428 2.97042 6.03501 4.29623 4.51665C5.62204 2.99828 7.45547 2.01477 9.45374 1.75C9.48371 1.74814 9.51377 1.74814 9.54374 1.75C9.6917 1.75126 9.83599 1.79626 9.95843 1.87934C10.0809 1.96241 10.176 2.07985 10.2319 2.21688L14.19 11.0556C14.2362 11.1637 14.2563 11.281 14.2488 11.3983C14.2414 11.5155 14.2064 11.6294 14.1469 11.7306L10.1737 16.4556C10.155 16.48 10.1362 16.5025 10.1194 16.5288C9.90769 16.8524 9.78303 17.2252 9.75741 17.6111C9.7318 17.997 9.80609 18.383 9.97312 18.7319C11.6025 22.0675 14.9625 25.4031 18.3356 27.0325C18.6868 27.1984 19.075 27.2706 19.4624 27.2421C19.8498 27.2135 20.2232 27.0851 20.5462 26.8694L20.6156 26.8169L25.2712 22.8569C25.3708 22.796 25.4835 22.7597 25.5998 22.7509C25.7162 22.7421 25.833 22.7611 25.9406 22.8063L34.7925 26.7738C34.9419 26.8359 35.0671 26.9448 35.1496 27.084C35.2321 27.2232 35.2673 27.3854 35.25 27.5463Z" fill="#E3E3E3"/>
</svg>
